<?xml version="1.0" encoding="UTF-8" standalone="no"?>
<svg
   version="1.1"
   id="Layer_1"
   x="0px"
   y="0px"
   width="100%"
   viewBox="0 0 477 703"
   enable-background="new 0 0 477 703"
   xml:space="preserve"
   sodipodi:docname="bunny.svg"
   inkscape:version="1.3.2 (091e20e, 2023-11-25, custom)"
   xmlns:inkscape="http://www.inkscape.org/namespaces/inkscape"
   xmlns:sodipodi="http://sodipodi.sourceforge.net/DTD/sodipodi-0.dtd"
   xmlns="http://www.w3.org/2000/svg"
   xmlns:svg="http://www.w3.org/2000/svg"><defs
   id="defs44" /><sodipodi:namedview
   id="namedview44"
   pagecolor="#ffffff"
   bordercolor="#000000"
   borderopacity="0.25"
   inkscape:showpageshadow="2"
   inkscape:pageopacity="0.0"
   inkscape:pagecheckerboard="0"
   inkscape:deskcolor="#d1d1d1"
   inkscape:zoom="0.78153907"
   inkscape:cx="214.96046"
   inkscape:cy="337.15525"
   inkscape:window-width="1920"
   inkscape:window-height="991"
   inkscape:window-x="-9"
   inkscape:window-y="1057"
   inkscape:window-maximized="1"
   inkscape:current-layer="Layer_1" />



<path
   fill="#C3C3C3"
   opacity="1.000000"
   stroke="none"
   d=" M209.468292,704.000000   C208.385223,703.334534 207.867477,702.233337 207.140533,702.071472   C200.439880,700.579163 196.833496,696.359070 195.882202,690.437744   C191.823120,689.793396 187.600845,689.927856 184.165146,688.349792   C180.776001,686.793091 178.182938,683.503174 175.169266,680.912354   C170.410965,684.691223 164.561356,683.461304 159.296387,681.505981   C154.065033,679.563171 155.082764,674.075378 154.960098,669.661438   C147.888687,667.564087 143.091736,666.976746 142.833359,646.880676   C140.303894,645.849060 136.911026,645.500854 135.629120,643.672546   C134.126953,641.530090 134.260483,638.113953 134.053436,635.223877   C133.820724,631.975891 133.999893,628.698425 133.999893,625.760864   C132.708221,624.560303 130.801590,623.557922 130.104492,622.010620   C126.570412,614.166077 123.661285,606.218018 126.206108,597.270874   C126.965202,594.601990 126.136391,591.516785 126.340599,588.644043   C126.517303,586.158325 127.624702,583.664856 127.437584,581.243042   C127.088844,576.729614 125.630783,572.282043 125.473846,567.777832   C125.162689,558.847229 119.576241,554.637085 112.262451,551.702820   C104.528374,548.600037 99.552505,542.764343 96.144417,535.436584   C92.344894,527.267212 88.624649,519.059082 85.018990,510.802734   C84.065254,508.618805 83.120644,506.202179 83.090988,503.880646   C82.901665,489.059967 81.545479,473.876556 86.307053,459.725891   C89.856735,449.176880 85.631561,441.976837 79.870934,434.939148   C72.781677,426.278381 69.073303,416.175964 68.330566,405.594757   C67.511162,393.921326 66.303123,381.891632 70.967041,370.418915   C75.338814,359.664948 79.662247,348.874573 83.468941,337.913391   C86.111053,330.305573 88.043556,322.427612 89.850418,314.568573   C90.360863,312.348267 89.494133,309.726929 88.940063,307.364349   C87.872955,302.814209 86.485947,298.338531 85.444077,293.783386   C85.189278,292.669342 86.039787,291.329193 85.882195,290.160400   C85.602211,288.083954 84.940063,286.059021 84.137589,283.983246   C83.765350,281.856323 83.329102,279.737885 83.046654,277.599091   C82.895195,276.452240 82.521118,274.897430 83.081650,274.165436   C86.513191,269.683868 82.360512,267.179535 80.585564,264.196106   C74.135941,253.355392 67.416389,242.674530 61.017632,231.804489   C57.094410,225.139801 51.975311,218.607361 50.303547,211.345551   C48.537758,203.675308 48.399242,194.588852 50.887238,187.252930   C53.790607,178.692261 52.262913,172.327118 47.970703,165.446533   C42.240261,156.260406 38.752171,146.276627 38.003803,135.413956   C37.711361,131.169159 38.593861,126.394714 36.923058,122.799355   C34.454285,117.486839 30.677040,112.537674 26.581280,108.275230   C17.107630,98.416054 11.928772,86.348846 9.348168,73.473480   C7.939419,66.444817 9.616289,58.716156 10.378422,51.352531   C11.604921,39.502262 11.754117,27.813480 7.106502,16.567602   C5.398292,12.434230 3.426144,8.409937 1.287194,4.667944   C1.000000,4.555555 1.000000,4.111111 1.333338,3.672848   C2.111118,2.786020 2.555559,1.893010 3.000000,1.000000   C5.041667,1.000000 7.083333,1.000000 9.562500,1.000000   C10.011535,1.483714 9.874606,2.324743 10.055834,2.400042   C20.748024,6.842568 25.470655,16.515923 29.797071,26.039734   C33.343128,33.845726 37.925716,40.570293 43.956684,46.536900   C48.179028,50.714184 51.704979,55.646122 56.168457,59.518967   C67.407234,69.270576 79.084404,78.515427 90.399010,88.182098   C93.623741,90.937149 96.429459,94.269432 99.046501,97.633286   C108.262177,109.478851 113.457817,123.061111 116.022903,137.764679   C117.890213,148.468460 120.148277,159.107452 121.839020,169.837250   C122.681114,175.181366 122.381950,180.696732 123.051628,186.078323   C124.598053,198.505402 125.318283,211.185471 128.455444,223.220261   C131.331940,234.255081 138.159592,243.530075 148.346497,249.905609   C153.288620,252.998657 157.542847,257.172791 162.228012,260.698669   C169.107269,265.875671 176.860779,270.155334 182.823410,276.213348   C189.064270,282.554047 195.370087,280.607208 202.180756,279.405579   C203.794739,279.120880 205.459885,279.019806 207.101837,279.016815   C222.599533,278.988647 238.149963,278.214264 253.578430,279.248077   C265.979828,280.079041 278.228302,283.145386 290.555023,285.156433   C296.807922,286.176575 303.072754,287.139465 309.352844,287.972504   C313.963654,288.584076 315.667084,285.248566 316.960907,281.753082   C321.133636,270.479675 323.753815,258.956970 325.408691,246.938721   C326.785248,236.941879 331.305878,227.264465 335.294983,217.808853   C336.518951,214.907593 340.511047,213.105057 343.370178,210.980621   C346.755951,208.464890 350.240997,206.074738 353.765350,203.755280   C360.820435,199.112213 358.878784,191.468231 359.888367,184.948456   C361.036011,177.536804 360.789215,169.888245 362.211426,162.548599   C362.965363,158.657745 365.900909,155.162064 367.983276,151.564194   C369.925201,148.209000 372.476562,145.131729 373.917725,141.589554   C374.782104,139.465027 373.956024,136.681778 374.021088,134.197998   C374.315887,122.939384 374.607147,111.680222 375.001129,100.424812   C375.237671,93.667213 375.667969,86.916496 375.997406,80.162018   C376.194183,76.127342 377.575806,72.842094 380.534271,69.803711   C387.896667,62.242401 394.690948,54.127739 402.058319,46.571613   C406.105194,42.421097 410.418427,38.628036 416.838226,37.670258   C419.221771,37.314648 421.244720,33.645039 423.171143,31.274635   C432.559875,19.722149 432.444885,20.012009 446.833740,23.835716   C455.983276,26.267128 463.172180,31.579082 469.909790,37.618675   C472.970917,40.362690 474.984833,44.274929 477.736877,47.328613   C478.000000,57.020893 478.000000,67.041786 478.000000,77.531342   C476.347839,78.645523 474.706512,79.320564 473.041412,79.930779   C468.893036,81.451027 464.770172,79.524284 461.974579,74.790047   C458.793732,69.403488 455.435699,68.725243 450.057373,71.953369   C441.931091,76.830856 437.960236,84.096764 434.639832,92.938576   C429.318848,107.107544 429.227386,121.646851 427.850677,136.238678   C426.721832,148.203491 427.107605,160.281769 423.354553,172.125824   C420.985413,179.602356 421.814270,188.063919 420.964020,196.057632   C420.016113,204.969391 418.377686,213.824844 417.798035,222.754028   C417.167358,232.469086 411.136230,239.334229 406.513580,247.029266   C400.097931,257.709076 393.918732,268.571198 392.091492,281.141479   C390.397034,292.798218 393.676361,303.273010 399.669006,313.388367   C405.273346,322.848175 409.695343,332.996063 410.001465,344.364532   C410.331421,356.618195 411.323975,368.900787 410.782532,381.115601   C410.382690,390.135559 408.424774,399.168945 406.371033,408.012878   C403.605347,419.922638 399.939270,431.620148 396.925751,443.476440   C394.556274,452.798828 396.121246,462.015991 399.045288,470.928894   C404.968231,488.982788 404.835236,506.371552 393.744507,522.531677   C388.137054,530.702148 381.811493,538.377075 376.111450,546.487549   C370.757111,554.106140 366.158661,562.273193 360.575470,569.709290   C353.498657,579.134766 355.244141,589.252747 356.741974,599.609680   C357.261047,603.198792 358.422577,608.111084 356.659882,610.312683   C353.229462,614.597168 353.782440,619.580322 351.859741,623.917480   C350.985687,625.889038 348.450470,627.124207 346.318329,629.002014   C347.734802,633.557312 347.237427,638.405029 344.447357,643.261108   C342.328552,646.948792 339.366302,648.810242 335.656494,647.780579   C333.539062,647.192810 331.342957,644.706665 330.393951,642.543701   C328.395691,637.989380 327.195465,633.085022 325.667389,628.323242   C315.390656,631.247986 313.096344,642.543335 319.228973,649.784485   C320.895752,651.752502 321.923248,654.326599 323.776947,656.049255   C325.023926,657.208069 327.459808,658.172668 328.898224,657.725647   C330.250061,657.305603 330.991882,654.919922 332.000153,653.397766   C332.589874,652.507507 333.175720,651.614685 334.344360,649.841370   C335.918304,660.896240 333.099976,662.914429 321.342590,659.794250   C317.752899,654.467407 314.694916,649.663269 310.832062,643.594727   C309.084198,643.687439 305.675598,643.868225 301.720551,644.078003   C305.962433,654.719360 305.565308,665.763550 315.167114,674.342712   C316.298920,670.034668 317.659027,666.826050 317.842865,663.551392   C317.997314,660.800964 318.833954,659.747314 321.364136,659.666870   C320.909088,663.703613 320.745056,667.804932 319.870361,671.748657   C319.462402,673.588074 317.894379,675.346558 316.457397,676.732483   C314.984528,678.153015 312.720978,678.787231 311.345734,680.268921   C307.854004,684.031006 304.293213,687.284668 298.727295,685.843933   C295.871613,694.384949 282.572571,700.188477 276.506714,698.806641   C273.489410,698.119263 271.799469,698.518555 269.714600,700.562378   C268.321045,701.928406 266.156799,702.508240 264.668762,703.719971   C257.312408,704.000000 249.624832,704.000000 241.797485,703.735474   C240.053360,702.427185 238.466843,701.354614 236.840485,700.346375   C234.360062,698.808777 229.491272,700.837708 228.000000,704.000000   C221.978851,704.000000 215.957703,704.000000 209.468292,704.000000  M91.265694,299.844696   C90.925644,299.687744 90.585594,299.530792 90.245544,299.373840   C90.470230,299.940704 90.694908,300.507568 90.991875,301.856018   C94.274551,308.085327 97.557228,314.314636 101.167038,321.164734   C99.063377,327.312378 96.506393,334.836945 93.912224,342.348663   C91.965309,347.986145 89.964668,353.605011 87.998451,359.235870   C84.605103,368.953766 82.214218,379.191589 77.514420,388.229279   C73.803551,395.365295 73.841423,401.309265 77.002235,407.980408   C77.628242,409.301697 78.769638,410.572174 78.846336,411.913361   C78.951866,413.758423 78.269844,415.648499 77.925240,417.519287   C76.745445,417.099731 75.565651,416.680206 74.385857,416.260651   C76.941223,422.445831 80.074463,428.094299 83.874031,433.251892   C88.776741,439.906921 93.199684,446.837402 90.714470,455.304352   C86.587906,469.363403 85.728546,483.675415 86.117409,498.117004   C86.240456,502.686310 87.749977,507.218262 88.503380,511.135132   C90.471855,510.708710 92.334572,510.068390 92.459282,510.313232   C94.870415,515.047424 99.959099,515.302856 103.830009,517.608643   C108.274002,520.255798 112.226158,523.895081 115.932388,527.567200   C119.572983,531.174377 124.191444,527.976562 128.008896,530.011597   C129.453323,530.781555 131.499832,530.331787 133.192200,530.756042   C134.506302,531.085449 135.640472,532.166748 136.954941,532.452637   C138.987930,532.894775 141.106522,532.943298 143.595764,533.200867   C144.313858,530.064819 146.272247,529.900757 149.070160,532.482666   C150.094940,533.428284 151.411575,534.396729 152.724091,534.630554   C157.403809,535.464417 162.138992,535.986877 167.501633,536.715332   C167.797394,536.352661 168.850769,535.060791 170.234070,533.364380   C171.312943,539.637573 169.461960,541.623840 164.437302,540.797058   C160.484497,540.146667 156.487473,539.762695 152.504532,539.309265   C152.381989,539.295349 152.191132,539.824097 152.042587,540.105347   C150.021484,543.931763 147.197372,543.149902 144.101471,541.615723   C142.690765,540.916687 140.180588,539.748474 139.721680,540.240723   C135.973862,544.260315 133.503830,540.557983 130.584473,539.168335   C129.585846,538.692993 128.351425,538.569824 127.219086,538.544983   C123.482307,538.463257 118.034454,540.059204 116.331429,538.193054   C111.607552,533.016663 107.527313,537.881409 103.149780,537.430847   C106.626114,540.313477 110.066071,543.205933 114.024956,544.844788   C121.411201,547.902527 129.036407,550.439453 136.696136,552.748718   C139.296661,553.532715 142.300720,552.993896 145.120773,553.029541   C147.784302,553.063110 150.688690,552.362793 153.070969,553.187439   C163.984665,556.965454 174.750412,561.170471 185.575989,565.204163   C186.369827,565.500000 187.292542,565.986389 188.026917,565.819397   C193.305176,564.619202 198.542084,563.237732 203.815399,562.014221   C204.528915,561.848755 205.372314,562.243103 206.155563,562.378174   C205.853012,563.232849 205.775467,564.299988 205.206253,564.902832   C203.418716,566.796204 200.821533,568.196716 199.707642,570.383789   C198.394089,572.962891 198.302353,576.164124 197.665894,579.166260   C195.417831,578.288086 193.805923,577.500122 192.106628,577.024170   C186.934265,575.575623 181.572617,574.660828 176.570206,572.779114   C168.245621,569.647705 160.130508,565.955200 151.954819,562.434814   C149.633331,561.435242 140.343216,563.936768 140.150528,566.094543   C139.455124,573.882019 135.924622,581.982910 142.025513,589.249573   C144.722092,592.461365 146.793091,596.579407 150.138290,598.782471   C156.176376,602.759033 162.951248,605.620361 169.435684,608.913513   C171.147675,609.782959 173.439438,610.082092 174.581772,611.405518   C180.251907,617.974243 188.775208,619.068359 195.838226,622.918457   C197.525787,623.838379 199.563751,624.124695 201.230316,625.072205   C206.822098,628.251282 214.384155,627.569397 219.324310,623.166809   C221.913116,620.859741 224.135147,618.054382 226.965546,616.122681   C233.238495,611.841614 236.566071,606.089661 238.190338,598.720093   C238.987122,595.104919 239.769760,590.594238 243.737671,588.900696   C245.780563,592.163208 247.195999,595.155029 249.276840,597.574646   C252.361923,601.161926 256.064758,604.212158 259.234497,607.734131   C262.573029,611.443665 265.009918,616.204651 268.873444,619.152771   C277.329193,625.604980 287.669952,623.998108 296.891205,622.203491   C306.892181,620.257019 315.315033,614.408142 321.931427,605.863098   C327.826080,598.250061 334.780609,591.345703 341.932556,584.862305   C345.890350,581.274536 345.881348,577.396423 346.089813,572.906738   C346.305054,568.272034 343.486969,565.894043 339.972076,565.222473   C335.763214,564.418274 331.240631,564.671753 326.927856,565.143311   C321.479370,565.739014 315.990906,566.609985 310.725342,568.092590   C302.133698,570.511719 293.716095,573.545837 285.202148,576.248291   C284.259247,576.547546 282.513000,576.784851 282.247559,576.359436   C280.099579,572.916748 278.931976,568.801575 281.247375,565.422302   C282.554779,563.514099 285.969482,562.839844 288.573364,562.090881   C291.026489,561.385132 293.665894,561.341614 296.214081,560.946899   C297.794586,560.701965 299.350891,560.128784 300.930054,560.078247   C306.417969,559.902527 312.109222,560.789062 317.361359,559.630981   C328.573212,557.158813 339.593933,554.345398 351.193451,556.901245   C352.560974,557.202637 354.511749,556.582520 355.688019,555.709961   C359.536469,552.855286 363.070496,549.579529 366.883850,546.673584   C369.734863,544.500916 372.830627,542.649475 375.817383,540.654968   C375.520355,540.141174 375.223297,539.627319 374.926270,539.113525   C370.103607,541.761108 365.280945,544.408630 360.082916,547.262268   C360.082916,545.035095 360.082916,543.553467 360.635864,541.859680   C360.740906,541.342346 360.845947,540.824951 360.951019,540.307617   C360.633514,540.057800 360.316040,539.808044 359.998566,539.558228   C359.790070,540.126770 359.581573,540.695251 358.820282,541.752625   C356.692780,542.744263 353.486115,545.146179 352.622864,544.485657   C348.691742,541.477539 345.390503,546.464966 341.875549,544.692749   C338.632660,549.887329 332.983612,545.583923 328.966675,547.879395   C328.749329,548.003540 327.831879,546.902466 328.280487,547.304993   C324.600220,549.430603 321.542419,551.239563 318.373627,552.826843   C318.274780,552.876282 317.026642,550.631165 316.153534,549.190491   C315.507843,550.505676 314.906128,551.731323 314.304382,552.956909   C314.008392,552.573792 313.712402,552.190613 313.416412,551.807495   C310.943207,553.526184 308.493622,555.280579 305.981598,556.940491   C305.280365,557.403870 304.153198,558.073914 303.635345,557.816406   C301.360931,556.685791 299.238190,555.250061 295.751465,553.128418   C300.576904,548.905518 305.096588,544.950134 309.894104,540.751648   C313.359009,544.650940 315.719177,542.543762 319.014801,539.894592   C321.465179,537.924866 324.418243,534.061890 328.895111,536.866516   C329.412659,537.190674 330.695312,536.444336 331.554260,536.045776   C334.699860,534.586304 337.720551,532.790710 340.973633,531.650696   C343.637573,530.717224 346.548584,530.398499 349.380066,530.053589   C353.920410,529.500549 358.483093,530.456665 363.124390,528.476685   C364.488159,527.894897 365.823303,527.080750 367.229889,526.427185   C368.471588,525.850220 370.138000,526.187317 372.508575,526.080811   C373.068481,525.134827 374.334869,522.995300 375.589172,520.876221   C377.209686,521.611206 378.473206,522.184265 379.500458,522.650146   C382.772949,520.654846 385.829773,518.791016 388.886627,516.927246   C390.057831,517.257629 392.817261,517.972717 394.678375,513.744385   C399.802582,502.102661 401.121918,489.955719 397.266663,477.896088   C393.189117,465.141174 391.512695,452.376801 394.108276,439.276733   C395.065002,434.447998 397.744141,429.978546 398.906128,425.168518   C400.919495,416.834473 401.818207,408.207184 404.166656,399.983368   C408.168793,385.968689 408.183960,371.724426 407.923737,357.412231   C407.898102,356.001862 406.812958,354.610718 406.219574,353.210663   C405.861084,353.345581 405.502625,353.480530 405.144165,353.615448   C405.022705,355.712555 404.901215,357.809692 404.772186,360.037476   C402.220886,359.025330 399.981598,358.214722 397.828461,357.218048   C397.390503,357.015289 397.230499,356.128143 397.020844,355.529083   C394.519104,348.381531 391.854858,341.284119 389.601044,334.058838   C387.981079,328.865509 386.374298,323.820953 387.728546,317.926514   C389.108826,311.918793 388.944244,305.490845 388.951904,299.246307   C388.969238,285.139587 387.998322,270.925232 395.940125,258.171143   C396.561340,257.173492 396.719666,255.887680 397.093140,254.735809   C396.693054,254.455170 396.292969,254.174530 395.892883,253.893875   C389.936768,260.542969 383.664215,266.944275 378.172791,273.957153   C375.814941,276.968262 373.492798,281.498291 374.024170,284.888458   C374.634216,288.780548 373.625458,291.892517 373.071136,295.352936   C372.794830,297.077576 373.023010,298.883087 373.023010,300.465790   C374.524506,300.319733 375.608185,300.214355 376.632660,300.114685   C377.098328,308.625824 377.445282,316.875885 378.032043,325.108856   C378.532501,332.130493 379.355103,339.128754 379.919067,346.146667   C380.017914,347.376526 379.739380,349.665466 379.302185,349.750305   C374.990662,350.587341 377.678009,353.635132 377.244904,355.642639   C376.914185,357.175690 377.025787,359.051239 376.160004,360.170746   C374.308258,362.565094 371.582794,364.313904 369.875610,366.783630   C366.116211,372.222168 366.268768,367.650482 365.711639,365.652039   C364.119507,365.766846 362.736298,365.866577 361.901031,365.926819   C360.942108,363.223419 359.650177,361.023407 359.503387,358.749481   C359.364960,356.605194 360.432068,354.383057 360.948883,352.276550   C354.597931,350.706726 355.944153,343.273163 355.658569,339.608337   C355.141296,332.970215 362.699493,330.374084 367.250732,327.548737   C366.815125,321.869598 366.438599,316.517456 365.971405,311.173279   C365.850769,309.793335 365.649048,307.343292 365.138123,307.248322   C361.650696,306.599945 363.190338,304.629822 363.569031,302.801819   C363.743225,301.960999 363.465088,301.025574 363.386536,300.133514   C363.198486,297.998383 362.145355,295.384186 363.007446,293.834534   C364.517792,291.119598 363.615906,290.172699 361.475708,288.970459   C359.004272,287.582153 358.031464,285.835449 360.235931,283.210541   C366.542511,275.701050 372.730438,268.091919 378.973114,260.528625   C383.192780,255.416229 387.425995,250.315033 391.653168,245.208832   C390.948486,244.921188 390.243835,244.633530 389.539185,244.345871   C389.789886,242.868958 389.524536,240.886154 390.385712,240.007660   C393.248810,237.086853 396.313202,234.265289 399.680603,231.961395   C403.993713,229.010452 408.675842,226.598846 415.081726,222.854279   C415.941864,213.095551 416.939972,201.413818 418.012329,189.738892   C418.656586,182.725067 418.247253,175.345901 420.355804,168.788284   C425.537445,152.673431 423.894196,135.972839 425.695160,119.606247   C426.665131,110.791550 427.228363,102.100266 430.622559,93.857590   C433.071014,87.911629 434.882874,81.446274 438.525696,76.309731   C443.989777,68.605148 452.015533,64.943771 462.018341,66.933540   C459.794220,66.152519 456.803192,66.820770 455.619965,65.654655   C451.162445,61.261597 445.949158,63.175030 440.979156,63.013805   C435.074158,62.822254 429.547485,65.013725 426.395325,69.529129   C421.779633,76.141106 417.384033,83.034668 415.590210,91.383339   C415.110748,93.614746 416.326721,100.936943 408.738007,98.435867   C408.352234,102.446190 407.996246,106.146675 407.595978,110.307442   C406.024780,109.826881 404.653442,109.407455 402.696625,108.808952   C402.696625,111.990631 402.696625,115.253494 402.696625,120.048294   C400.017700,117.984138 397.164764,116.872246 396.184601,114.851837   C390.454254,103.039742 390.269043,90.786949 397.199982,79.654610   C402.233398,71.570053 409.160370,64.664238 415.245148,57.234550   C422.852112,47.946186 432.713287,42.751427 444.541595,41.190472   C448.653381,40.647846 458.975769,46.811722 461.061646,50.659065   C462.239197,52.831017 463.692169,54.960178 465.430084,56.699993   C469.266418,60.540543 468.880676,67.198120 462.041595,73.003281   C464.424896,74.719841 466.808197,76.436401 470.294769,78.947556   C472.236633,73.140091 474.273438,69.291481 474.702667,65.271240   C475.461487,58.163425 475.531525,51.256557 470.600372,44.736355   C465.039154,37.383026 457.732513,32.656982 449.990814,28.692768   C438.083557,22.595522 435.191742,23.417316 427.457275,32.057011   C426.820862,32.767902 426.479462,33.738167 425.864502,34.473804   C422.972076,37.933899 420.636658,42.598186 415.606537,42.835503   C410.089844,43.095772 406.870483,46.303543 403.608582,49.890396   C396.952759,57.209206 390.190033,64.435379 383.710693,71.907219   C381.783020,74.130157 380.043335,76.884026 379.306519,79.681458   C378.317413,83.436554 378.231934,87.462715 378.041992,91.386223   C377.840729,95.543251 378.055084,99.718658 377.940552,103.881981   C377.685699,113.142479 375.968475,122.619026 377.400879,131.600235   C378.947052,141.294403 376.229004,148.331314 370.320099,155.320969   C365.629059,160.869949 362.988251,167.407639 362.937317,174.945770   C362.883728,182.870834 362.461060,190.801682 361.899719,198.708710   C361.773193,200.490982 360.855286,202.739532 359.526428,203.819504   C354.870850,207.603012 349.806152,210.877930 345.039764,214.532410   C342.545380,216.444916 339.258026,218.313568 338.213226,220.949081   C334.381714,230.614273 329.892578,240.375946 328.375488,250.509201   C326.560608,262.631531 323.784515,274.301880 319.623688,285.712769   C318.400757,289.066589 316.120514,291.451538 311.809296,291.054199   C301.445587,290.099152 291.238373,288.969849 281.029938,286.292908   C265.090424,282.113129 248.590607,281.178497 232.071655,282.072113   C231.713791,282.091461 231.379318,282.543274 231.033936,282.793365   C231.087189,283.305664 231.140442,283.817993 231.193695,284.330292   C235.555252,284.134918 239.916809,283.939545 244.540695,283.732422   C246.396866,290.516205 250.881989,282.515167 253.928558,284.406525   C250.293594,290.813354 240.581497,293.394440 232.746689,292.283142   C223.892853,291.027344 214.666382,291.148254 207.334488,298.098816   C206.449844,298.937439 205.019608,300.050720 204.091782,299.854828   C198.311737,298.634430 193.751877,302.350281 190.095200,305.003510   C184.718475,308.904755 178.939957,308.197937 173.001205,309.595795   C173.660110,307.315796 174.984940,305.728333 176.047119,303.981140   C177.905487,300.924286 182.974564,299.178894 181.071335,294.618073   C179.296661,290.365326 176.543854,286.499817 174.040863,282.579254   C172.342636,279.919250 170.332214,277.458557 168.461411,274.908722   C168.847763,274.596710 169.234100,274.284729 169.620453,273.972717   C170.993301,274.543549 172.366165,275.114410 173.907608,275.755341   C173.852188,275.018066 173.953369,274.545898 173.787354,274.416534   C165.442413,267.912445 157.382446,260.981689 148.631805,255.074585   C137.566498,247.604965 128.500076,238.591217 125.397041,225.436737   C123.015327,215.340088 122.347641,204.834976 120.989395,194.502090   C119.288666,181.563766 117.984901,168.563904 115.920059,155.685165   C113.363068,139.736862 111.051331,123.536568 102.025574,109.617538   C97.611176,102.809898 92.922295,95.619492 86.721581,90.639381   C70.193474,77.364845 53.701622,64.130096 39.741428,48.102901   C35.352463,43.064095 30.854996,37.678307 28.233541,31.656298   C25.149134,24.570789 21.685617,17.941229 16.582415,12.252391   C14.115644,9.502540 11.930722,5.772137 7.274067,6.163290   C9.795816,13.682106 12.224981,20.924873 14.899459,28.899061   C15.853567,26.924679 16.349030,25.899393 17.217007,24.103247   C18.403299,26.398415 19.113943,27.964588 19.990757,29.431433   C22.059000,32.891457 24.152857,36.338894 26.346144,39.720211   C27.327814,41.233620 28.526474,42.616501 29.712885,43.983799   C30.743277,45.171288 32.443535,46.066509 32.902309,47.413017   C35.436935,54.852177 39.276711,60.979626 45.962349,65.694237   C54.748825,71.890335 62.524216,79.534760 71.387154,85.602989   C77.684479,89.914597 83.455795,94.459358 88.063217,100.517464   C88.598763,101.221634 89.714027,101.459068 90.493378,102.008194   C93.583244,104.185341 96.253922,106.612801 95.996910,110.904984   C95.906693,112.411736 95.745888,114.042595 96.191933,115.432365   C99.156685,124.669891 102.277344,133.857376 105.254684,142.783463   C105.079247,142.889236 105.706169,142.511215 106.333084,142.133194   C106.553719,142.858627 107.031143,143.617554 106.941780,144.302536   C106.752731,145.751648 105.923599,147.170715 105.958961,148.587082   C106.223358,159.176910 106.599754,169.764542 107.037758,180.348831   C107.103165,181.929367 107.138000,184.177643 108.108543,184.933197   C111.438759,187.525665 110.216934,190.299820 109.318764,193.332809   C107.549805,199.306335 106.929970,205.172592 110.369286,210.971359   C111.732994,213.270584 112.612122,216.079773 112.916595,218.747543   C114.545799,233.022308 120.278992,245.798203 126.779922,258.345551   C127.601578,259.931396 127.823555,261.827942 128.323364,263.580536   C127.929726,263.906464 127.536087,264.232361 127.142456,264.558289   C124.847458,263.288879 122.580719,261.964844 120.251862,260.760925   C114.553513,257.815125 108.296280,255.627396 103.254112,251.822495   C97.775627,247.688324 90.368362,246.705673 86.141693,240.698547   C83.054100,236.310303 79.365952,232.327454 76.472923,227.825027   C74.230652,224.335373 72.787735,220.329163 71.023155,216.536911   C70.291740,214.965057 69.648048,213.352402 68.964478,211.758301   C68.597633,209.451202 69.260345,206.860046 69.424927,204.237625   C69.536758,202.455795 68.955299,200.629349 68.674568,198.824295   C68.387283,196.977081 68.662712,194.737122 67.706726,193.346069   C57.442768,178.410950 54.864700,161.023788 52.189590,143.815811   C50.989910,136.098740 48.863228,129.014206 44.897896,122.446060   C39.376320,113.300163 33.423630,104.408089 28.091587,95.156036   C22.876183,86.106392 18.207964,76.741402 12.943172,66.844910   C12.943172,69.256966 12.665531,71.094177 12.987020,72.819756   C15.599092,86.839958 22.370964,98.852219 32.422768,108.639618   C38.870258,114.917526 41.591705,121.675552 41.091534,130.490875   C40.413338,142.443756 44.776127,153.477768 51.025379,163.045654   C56.945385,172.109467 57.041527,180.477051 53.606033,189.844269   C50.779587,197.550858 50.558231,205.528549 54.449360,212.678146   C61.311615,225.286911 68.947151,237.476562 76.335266,249.795898   C77.746239,252.148651 79.123825,255.720001 81.178970,256.274353   C88.881439,258.352020 93.620216,263.920410 98.728287,269.204041   C99.622009,270.128479 100.423889,271.141724 101.181213,272.013794   C97.020950,275.087738 91.621117,269.086212 89.502251,274.395111   C88.077095,277.965912 89.230865,282.565948 89.230865,286.694824   C92.028366,288.084717 94.729515,290.453918 97.527863,290.574890   C101.665665,290.753845 103.736572,293.204102 106.112144,295.634857   C109.032784,298.623383 113.045868,300.968964 112.191505,306.247406   C112.048157,307.133026 113.130280,308.258728 113.735397,309.217163   C119.275360,317.991760 120.650833,327.608734 119.614929,339.079712   C118.286903,337.572144 117.413498,336.944092 117.054825,336.097839   C116.306992,334.333405 116.012566,332.369385 115.208466,330.637543   C113.100685,326.097748 110.511604,321.760345 108.674980,317.120361   C105.432899,308.929688 98.388069,304.816956 91.265694,299.844696  M208.113831,698.622192   C213.394943,700.137390 218.471436,701.809082 224.262863,700.117676   C232.694733,697.654968 234.748978,695.220276 235.078308,686.441101   C235.347824,679.255981 236.330536,672.098572 236.939117,664.924011   C237.035751,663.784790 237.269104,662.271484 236.682816,661.526428   C234.068451,658.204224 231.525406,654.687256 228.324265,651.991699   C219.134995,644.253784 209.410965,646.989502 206.012634,658.503601   C203.461456,667.147461 201.583786,676.039307 200.108994,684.937195   C198.767624,693.030090 200.127518,694.746643 208.113831,698.622192  M238.783981,695.275146   C240.137726,696.523560 241.299286,698.148560 242.878784,698.954590   C249.409363,702.287476 256.069733,701.231873 262.698120,699.065674   C270.486084,696.520569 270.677338,696.113770 269.041870,688.505554   C268.192780,684.555725 267.429779,680.560059 267.038330,676.545166   C266.366974,669.659485 264.960541,663.301575 258.604065,659.170044   C256.882599,658.051086 255.406631,656.486389 254.009216,654.952148   C251.607651,652.315430 248.420898,650.934692 245.374069,652.242188   C243.444519,653.070251 241.394897,655.913208 241.169983,658.039673   C239.882126,670.217041 239.124954,682.450500 238.783981,695.275146  M271.004456,682.253235   C272.003021,685.310974 272.615021,688.582092 274.141846,691.348267   C275.092407,693.070496 277.837250,695.432739 279.064453,695.073608   C283.146454,693.879028 287.000610,691.751587 290.752502,689.644165   C292.838654,688.472351 294.548309,686.630188 296.185394,685.288635   C289.180298,676.371216 285.804657,666.148132 285.871429,654.821167   C284.374359,653.841370 282.312225,653.225403 281.640106,651.903015   C280.118195,648.908691 278.150940,647.986694 275.107819,649.029114   C271.583649,650.236328 268.872162,652.456848 269.074036,656.393982   C269.501740,664.736816 270.333466,673.058899 271.004456,682.253235  M178.029510,676.011475   C181.597336,679.431213 184.848129,683.297974 188.835739,686.125732   C191.893478,688.294067 196.394623,685.619934 197.011902,682.162476   C198.290176,675.002686 199.211304,667.734009 201.149765,660.751770   C202.663818,655.298157 200.236755,652.926270 196.007950,650.982544   C191.573090,648.944214 183.768265,649.490173 182.258362,652.479919   C178.671570,659.582092 176.131729,667.015381 178.029510,676.011475  M158.928070,659.335510   C158.679337,664.070374 157.894836,668.857239 158.347794,673.523987   C158.724670,677.406738 164.318161,680.848328 167.836502,679.899780   C171.805405,678.829590 174.063324,676.811096 174.263947,671.746948   C174.527847,665.085205 176.523453,658.461548 178.077148,651.893127   C178.977707,648.085815 179.248840,645.044189 175.002625,642.933411   C169.852417,640.373169 165.481537,640.227600 163.747101,643.964172   C161.623383,648.539368 160.530258,653.592957 158.928070,659.335510  M309.383118,674.931274   C302.308197,666.608154 302.741852,655.384216 298.464813,646.067810   C291.880737,646.125488 287.387115,653.420349 289.360931,660.718567   C290.403748,664.574402 291.321350,668.566589 293.095917,672.094543   C295.042999,675.965637 297.193451,681.186340 300.561584,682.520020   C304.688660,684.154358 307.330505,678.779114 309.383118,674.931274  M342.501221,630.999817   C339.274933,623.928406 336.048676,616.856995 332.884064,609.920776   C329.527924,610.931824 327.245392,613.572876 328.033112,617.944458   C329.062561,623.657410 330.030457,629.411621 331.598572,634.986694   C332.621216,638.622437 334.663666,641.971375 336.621857,646.265747   C340.743134,641.121582 344.951813,637.688538 342.501221,630.999817  M148.470108,640.024719   C147.815659,644.694397 146.579193,649.374329 146.660522,654.031128   C146.753128,659.333923 148.677307,664.134583 153.631317,665.272339   C155.793427,657.338440 157.758469,649.524475 160.097336,641.824036   C161.119080,638.460083 159.337646,634.628235 155.917023,635.207642   C153.425995,635.629639 151.256195,637.947815 148.470108,640.024719  M138.000107,637.204956   C137.108139,641.760132 140.934250,641.700134 143.140274,642.898499   C144.369476,640.089478 144.908554,636.857117 146.798111,634.995789   C149.832794,632.006409 150.375122,628.612488 149.872482,625.001648   C149.560623,622.761414 148.003525,620.694458 147.005371,618.549744   C144.806259,620.059998 141.465805,621.117615 140.649429,623.176270   C139.030029,627.259888 138.802704,631.895569 138.000107,637.204956  M342.534821,604.013489   C341.631256,602.715759 340.727692,601.418030 339.493225,599.645081   C334.987091,609.761536 339.187347,617.394592 344.227234,624.939209   C350.881958,621.286133 351.817017,616.444946 347.293365,610.660461   C345.768951,608.711182 344.452698,606.599060 342.534821,604.013489  M139.376007,606.914490   C137.253616,606.593933 134.722809,605.393799 133.099274,606.147644   C130.269913,607.461304 130.429214,610.423828 131.621185,613.169067   C132.756454,615.783630 133.816376,618.431030 135.226700,621.828247   C138.163269,615.651123 143.127960,614.929810 146.700546,614.797607   C144.733002,612.649475 142.342010,610.039001 139.376007,606.914490  M353.557312,602.049622   C352.502960,598.519470 351.448608,594.989380 350.059875,590.339783   C348.393768,590.854187 345.544708,590.874512 344.623596,592.217285   C343.200623,594.291748 343.151947,596.820862 345.605835,599.390564   C348.625519,602.552795 350.571594,606.740234 353.947418,611.984924   C353.947418,608.089783 353.947418,605.459229 353.557312,602.049622  M216.437958,281.999908   C208.144653,282.599182 199.851349,283.198425 191.254395,283.819641   C192.648712,288.465942 195.932648,287.720612 198.058838,286.174164   C201.337601,283.789368 204.058929,283.435944 207.383575,285.683655   C208.272858,286.284882 209.735184,286.481537 210.817749,286.269135   C213.818741,285.680389 216.745255,284.723145 219.726715,284.019806   C221.619110,283.573364 223.557083,283.320221 225.474625,282.980377   C225.427338,282.653564 225.380066,282.326721 225.332779,281.999908   C222.687286,281.999908 220.041809,281.999908 216.437958,281.999908  M410.621124,227.916306   C409.216614,229.165863 407.812134,230.415421 406.407623,231.664978   C406.769745,231.809937 407.131866,231.954895 407.493988,232.099854   C406.532593,234.894730 405.571198,237.689590 404.609772,240.484467   C405.104218,240.676239 405.598663,240.868011 406.093109,241.059799   C408.260406,236.997498 410.453064,232.947937 412.518768,228.834610   C412.620178,228.632629 411.612061,227.873489 410.621124,227.916306  M187.464767,288.027710   C187.896866,287.169678 188.328964,286.311615 188.654831,285.664551   C186.223282,283.962494 183.793213,282.261444 180.610519,280.033569   C182.604050,284.310394 184.221954,287.781403 185.803650,291.174713   C186.090012,290.591064 186.569290,289.614166 187.464767,288.027710  M399.057159,247.752686   C398.532013,249.826050 398.006866,251.899414 397.481720,253.972778   C397.713898,254.043747 397.946075,254.114716 398.178284,254.185684   C399.489624,251.398453 400.800964,248.611221 402.112305,245.823975   C401.866516,245.696060 401.620728,245.568146 401.374939,245.440231   C400.748810,245.968704 400.122711,246.497162 399.057159,247.752686  M179.598480,278.161926   C179.264359,278.429840 178.930252,278.697723 178.596130,278.965607   C179.077225,278.919922 179.558334,278.874207 179.598480,278.161926  M403.905396,243.800339   C403.482239,243.954590 403.059082,244.108826 402.635925,244.263077   C403.040344,244.369888 403.444733,244.476700 403.905396,243.800339  z"
   id="path4" />

<path
   fill="#000000"
   opacity="1.000000"
   stroke="none"
   d=" M2.500000,1.000000   C2.555559,1.893010 2.111118,2.786020 1.333338,3.339515   C1.333333,2.333333 1.666667,1.666667 2.500000,1.000000  z"
   id="path6" />



















<path
   fill="#000000"
   opacity="1.000000"
   stroke="none"
   d=" M91.105759,300.880188   C90.694908,300.507568 90.470230,299.940704 90.245544,299.373840   C90.585594,299.530792 90.925644,299.687744 91.459183,300.065735   C91.532417,300.419830 91.412163,300.552887 91.105759,300.880188  z"
   id="path26" />
<path
   fill="#000000"
   opacity="1.000000"
   stroke="none"
   d=" M179.818954,278.495209   C179.558334,278.874207 179.077225,278.919922 178.596130,278.965607   C178.930252,278.697723 179.264359,278.429840 179.818954,278.495209  z"
   id="path27" />

<path
   fill="#C2C2C2"
   opacity="1.000000"
   stroke="none"
   d=" M196.837646,517.983765   C181.429047,517.405457 166.403748,517.309814 151.469437,516.095215   C142.644882,515.377502 133.941498,513.598450 125.607803,509.552673   C119.855896,506.760254 114.949989,503.219849 112.350967,498.058594   C108.420723,490.253784 105.611145,481.774963 103.235939,473.326538   C100.678307,464.229156 100.288162,455.005981 103.448799,445.624817   C104.303230,443.088806 101.530098,439.292755 100.306473,436.119598   C99.974815,435.259521 99.220985,434.562286 98.227409,433.192719   C101.295128,433.192719 103.423653,433.231750 105.549843,433.178284   C106.858604,433.145416 108.569878,433.467865 109.407135,432.783051   C116.900635,426.654266 125.997665,427.447754 134.320374,428.288391   C145.050262,429.372101 155.603058,432.476166 166.140198,435.081787   C170.968094,436.275604 175.576675,438.356262 180.262634,440.026855   C181.419296,438.274597 182.512146,436.619019 184.402756,433.754852   C181.735214,432.834473 179.100800,431.859741 176.424347,431.018738   C173.076584,429.966766 169.179321,431.164215 166.384857,427.478577   C165.363007,426.130859 161.667114,427.147247 159.665482,426.141235   C154.133682,423.360992 148.926010,419.940643 143.428589,417.084442   C141.670883,416.171234 139.410568,415.919373 137.375092,415.899841   C128.694138,415.816467 119.697144,417.338593 111.437462,415.492279   C105.757011,414.222504 100.587646,415.537323 95.327866,414.768890   C90.836220,414.112732 86.544052,412.091217 82.657898,410.833588   C83.009956,408.293976 83.339890,405.913940 83.855728,402.192902   C88.235855,403.479187 92.903839,404.935272 97.621155,406.208679   C101.483490,407.251251 105.365738,408.324219 109.308372,408.941864   C116.015602,409.992676 122.777237,410.696198 130.064896,411.614807   C130.179504,400.805359 122.265396,392.627106 119.717880,382.724121   C120.046684,382.289551 120.375488,381.854980 120.704292,381.420441   C124.630577,383.611359 129.130508,385.171539 132.369934,388.117706   C140.406204,395.426361 147.960037,403.278625 155.482941,411.127930   C157.056396,412.769684 160.776871,413.980499 158.426773,417.620789   C158.379395,417.694214 158.511261,417.980896 158.628601,418.048889   C161.673981,419.814606 164.733124,421.556488 167.780273,423.319214   C171.113571,425.247528 173.529266,425.840729 177.038620,422.319763   C180.736145,418.610046 186.150650,414.728851 190.999329,414.477386   C198.857895,414.069824 206.939301,413.087097 214.386551,420.198517   C222.604950,428.046387 226.100677,436.452545 225.827759,447.087402   C225.778625,449.002319 224.285645,450.880188 222.929550,453.989838   C224.271561,455.472137 226.940430,458.134918 229.234451,461.088776   C230.205460,462.339020 231.030197,464.304321 230.795776,465.763885   C230.310410,468.785950 228.856094,471.642639 228.234848,474.656921   C227.933533,476.118805 228.735977,477.775635 228.826569,479.356384   C229.253235,486.802277 229.686752,494.250519 229.861572,501.703918   C229.879089,502.450287 228.218002,503.813599 227.248260,503.899414   C224.069016,504.180695 221.882309,505.504333 220.883347,508.547791   C219.042297,514.156799 213.595490,514.160339 209.342987,515.652161   C205.512390,516.995972 201.302032,517.257263 196.837646,517.983765  M184.377884,449.977173   C181.213364,449.106689 178.037537,448.274963 174.886932,447.356628   C170.118576,445.966705 165.366135,444.521942 160.609970,443.090363   C154.979614,441.395630 149.418427,439.406647 143.703522,438.077148   C138.963989,436.974518 134.050430,436.600739 129.204300,435.979675   C120.083153,434.810669 115.289734,438.283630 112.934265,447.484955   C112.261520,450.112885 110.964294,452.587585 110.367706,455.226227   C109.896919,457.308441 109.509003,459.683746 110.045822,461.668884   C111.777840,468.073761 113.813980,474.407837 116.017807,480.668915   C117.136818,483.848022 118.544800,487.022614 120.382469,489.832825   C125.301575,497.355347 132.042831,502.164856 141.039124,504.321411   C151.210403,506.759644 161.127686,510.287994 171.838013,508.986603   C174.766602,508.630737 177.807541,507.687775 180.615616,508.140015   C188.527405,509.414032 195.999619,508.856659 203.635208,506.120697   C209.422775,504.046967 212.634842,501.490295 212.076965,495.400848   C211.562958,489.790222 210.964676,483.862579 208.749588,478.797974   C203.641510,467.118774 195.777298,457.329926 184.377884,449.977173  M218.052277,444.617035   C217.006561,443.215698 216.262146,441.230377 214.865250,440.509613   C206.938019,436.419159 198.564056,434.019165 188.038513,434.767456   C190.143082,436.676270 191.129852,438.262695 192.475815,438.674194   C198.860336,440.626068 205.337753,442.276550 211.793396,443.991882   C213.832397,444.533661 215.906418,444.943634 218.052277,444.617035  z"
   id="path29" />
<path
   fill="#C2C2C2"
   opacity="1.000000"
   stroke="none"
   d=" M360.990662,504.988800   C345.952576,514.127625 329.669250,520.200012 313.008606,523.996460   C301.076874,526.715332 287.847107,527.964966 276.240417,520.918152   C272.191498,518.459961 268.918396,514.730652 265.262543,511.615173   C263.753723,510.329346 261.836182,509.380219 260.689606,507.841858   C258.263702,504.586945 256.222595,501.045288 253.704773,497.124695   C248.831467,496.319763 248.452026,494.617249 248.896317,485.596893   C249.291794,477.566833 250.355209,470.072632 255.638840,463.606354   C256.351196,462.734558 255.801941,460.752136 255.681244,459.296906   C255.467194,456.715942 254.543762,454.046814 254.952820,451.586792   C256.687958,441.151672 261.543762,431.772614 266.931061,422.962555   C269.277039,419.126038 272.701294,415.010071 279.752655,415.630463   C292.799164,416.778290 305.683472,418.302429 318.579895,420.599487   C322.267059,421.256287 326.831299,417.605194 330.841125,415.621613   C333.593811,414.259979 336.396362,412.699707 338.607361,410.622345   C341.071991,408.306732 342.730225,405.157349 345.030701,402.636688   C348.452087,398.887939 351.964722,395.180664 355.808777,391.887909   C356.815735,391.025299 359.189117,391.757874 360.934998,391.757874   C361.233276,392.301300 361.531555,392.844696 361.829865,393.388123   C359.790039,395.858643 357.627472,398.241119 355.764008,400.838196   C354.878967,402.071625 354.215179,403.702972 354.166534,405.177643   C354.147614,405.752625 356.160980,406.303131 357.134857,407.019470   C360.089630,409.192719 362.977814,410.038696 365.973938,407.077240   C366.201996,406.851807 366.977936,406.987457 367.397308,407.178680   C371.403076,409.004944 375.386902,410.879486 378.962036,412.546631   C374.120850,416.875977 374.120850,416.875977 372.718842,413.410339   C367.796295,418.130249 361.354309,418.555450 355.119049,419.668579   C351.917999,420.240082 348.657745,420.879517 345.653992,422.068634   C340.292999,424.190796 335.106232,426.753021 329.846619,429.131256   C330.039978,429.752960 330.233368,430.374664 330.426758,430.996368   C336.343781,430.996368 342.261200,431.039581 348.177734,430.986328   C357.276733,430.904388 366.731628,433.172180 374.787384,425.983643   C375.323395,426.256409 375.859436,426.529144 376.395477,426.801880   C377.256744,432.558319 378.783539,438.308533 378.837158,444.072479   C378.940796,455.207367 379.218231,466.513000 377.447876,477.427368   C376.410370,483.823578 374.580994,490.993500 368.790283,495.884430   C365.849579,498.368256 363.604309,501.675476 360.990662,504.988800  M368.980286,444.614990   C368.353760,443.419281 367.876038,441.304169 367.076935,441.174835   C361.222260,440.227295 355.264465,438.884430 349.412720,439.170563   C337.837250,439.736603 326.217407,440.716217 314.793488,442.601135   C307.047363,443.879303 299.158478,446.094330 292.164246,449.564728   C286.439697,452.405121 281.426270,457.247192 277.029419,462.054199   C271.234497,468.389587 269.166199,476.823364 267.634216,485.016571   C266.409515,491.566193 266.019379,498.474060 271.713654,503.862366   C272.984802,505.065277 273.743988,506.823273 274.684570,508.358978   C278.182068,514.069763 283.731262,517.018127 289.924255,517.847229   C297.117188,518.810120 304.495422,518.870605 311.485901,515.922729   C324.819092,510.300018 338.487305,505.354950 351.400024,498.896179   C359.009613,495.089996 364.971741,488.240173 367.868591,479.973846   C371.804718,468.742065 371.433472,457.087799 368.980286,444.614990  M297.503510,436.920197   C302.520477,435.940094 307.537415,434.959961 312.554382,433.979858   C311.220154,433.116150 309.824432,433.204315 308.713196,432.684418   C298.143066,427.739410 287.767639,427.826691 277.795593,434.061035   C275.456085,435.523621 273.728668,437.965210 271.756866,439.919525   C276.309479,440.563232 279.765564,441.051880 283.221649,441.540558   C283.173737,442.035248 283.125854,442.529938 283.077942,443.024628   C287.608093,441.014374 292.138245,439.004089 297.503510,436.920197  z"
   id="path30" />
<path
   fill="#C3C3C3"
   opacity="1.000000"
   stroke="none"
   d=" M191.373749,380.979004   C194.574997,380.919952 197.332275,380.486023 198.782288,384.039337   C199.150452,384.941528 201.482208,385.326569 202.949875,385.435547   C205.811951,385.648071 208.700958,385.497803 212.008453,385.497803   C211.921524,385.754608 212.216705,384.882690 212.985596,382.611481   C215.922211,387.440887 218.282928,391.323212 219.952377,394.068695   C222.270554,394.785675 224.031845,394.956360 225.285233,395.844116   C226.183105,396.480133 227.155182,398.705902 226.794800,399.137573   C225.000473,401.286713 222.775803,403.076538 220.702591,404.992828   C219.908417,404.046570 219.114258,403.100342 218.752808,402.669647   C217.469025,402.858154 215.992783,403.504639 214.796814,403.164795   C211.941177,402.353271 209.199280,401.121002 206.445206,399.977356   C202.449890,398.318207 198.496521,396.557922 194.497665,394.907623   C193.471436,394.484100 192.347641,394.090485 191.258636,394.061554   C186.762299,393.942108 182.258453,394.068878 177.764572,393.906097   C174.628525,393.792480 171.504181,393.355408 168.006668,393.028412   C166.007339,392.001312 163.173737,391.036865 160.938690,389.301483   C155.174500,384.826019 149.748749,379.916779 144.032303,375.376648   C141.839340,373.634918 139.358185,372.094330 136.771683,371.046051   C132.433640,369.287903 130.567810,365.941986 129.739059,362.097229   C128.876297,362.669800 127.933823,363.737366 126.936989,363.790833   C126.340149,363.822784 125.187721,362.320068 125.088921,361.419006   C124.285095,354.088501 123.475342,346.748169 123.062912,339.388641   C122.745239,333.719910 122.999596,328.019165 122.999596,321.536530   C134.129028,323.533600 144.471664,320.597626 153.584366,326.289276   C154.697540,326.984558 155.647598,328.580719 155.839828,329.882446   C155.964767,330.728485 154.578140,331.797729 153.545135,333.209106   C159.232300,347.103912 170.814713,359.602386 171.260315,376.574921   C172.790771,374.727203 174.239609,373.777771 175.758392,377.676331   C176.348877,379.192078 179.786484,379.598694 181.878906,380.489990   C181.897476,380.377411 182.073547,379.310089 182.384537,377.424896   C185.459412,378.694031 188.207336,379.828217 191.373749,380.979004  z"
   id="path31" />
<path
   fill="#C2C2C2"
   opacity="1.000000"
   stroke="none"
   d=" M224.813248,529.627136   C238.069260,523.317078 250.540588,526.526184 262.574829,532.033081   C271.474640,536.105713 278.612885,550.112549 276.909790,559.044800   C276.567993,560.837402 274.918640,563.629761 273.691223,563.729248   C271.528992,563.904541 269.227325,562.359985 266.383575,561.314819   C262.842163,567.762329 256.025452,569.616577 248.480820,566.754639   C244.037994,565.069336 243.436111,556.208008 247.176605,547.902893   C249.707291,542.283875 254.964798,542.174988 260.457825,544.422241   C256.821289,533.698608 235.036972,532.477173 225.261368,542.837708   C236.001785,542.267883 243.201782,545.526062 243.049423,557.180725   C242.984879,562.118347 240.927200,565.727966 236.153580,566.811646   C233.163055,567.490479 229.527512,567.686035 226.815613,566.564636   C224.152588,565.463440 222.291489,562.422852 219.885727,560.042603   C220.083267,559.987549 219.590439,559.982239 219.497421,560.172363   C218.209366,562.806458 217.038330,566.447571 213.404602,564.694641   C211.877380,563.957947 211.270081,560.358887 211.068314,557.990845   C210.051270,546.055054 215.064728,536.875305 224.813248,529.627136  z"
   id="path32" />
<path
   fill="#C3C3C3"
   opacity="1.000000"
   stroke="none"
   d=" M369.419769,230.216034   C359.416351,239.545456 354.216583,251.589767 347.999603,262.984283   C347.385284,264.110168 346.320862,264.990448 345.465332,265.984711   C344.720551,264.945282 343.975769,263.905884 343.613220,263.399902   C342.844086,264.594849 341.753876,266.288513 340.663696,267.982208   C339.872498,267.244293 339.081268,266.506378 338.429993,265.898987   C337.272369,267.943054 335.972412,270.238403 334.672485,272.533783   C333.925476,272.210938 333.178467,271.888092 332.431458,271.565216   C333.619598,266.812866 334.754669,262.046448 336.007324,257.311157   C338.311218,248.602203 338.693939,239.483765 342.767609,231.099518   C344.783783,226.949905 347.764740,223.889511 351.313446,222.618484   C355.793610,221.013840 358.518219,217.981628 361.556183,214.943634   C367.472931,209.026794 377.320984,207.160080 385.003632,210.475433   C385.875427,210.851669 386.801483,211.102188 387.713959,211.414978   C387.063171,216.235352 386.419067,221.006317 385.704742,226.297241   C378.538269,220.668869 375.186615,229.219940 369.419769,230.216034  z"
   id="path33" />
<path
   fill="#C3C3C3"
   opacity="1.000000"
   stroke="none"
   d=" M348.723633,317.668579   C343.005859,322.645081 337.850586,327.825928 331.919189,331.867889   C321.922333,338.680176 318.022614,350.492645 309.254333,358.173615   C306.078552,360.955566 302.672668,363.524323 299.111572,365.779510   C298.300293,366.293304 295.930176,365.534027 295.111328,364.616577   C292.966400,362.213226 291.266785,358.736389 293.858765,356.219208   C301.305603,348.987274 309.252594,342.270355 316.905762,335.437866   C317.353729,333.654663 317.859833,331.639954 318.342682,329.717957   C317.779724,329.759216 316.588379,329.846527 314.915527,329.969116   C315.251373,328.299988 315.518860,326.970459 315.529480,326.917755   C314.294769,325.316833 312.985931,324.066803 313.168427,323.786041   C314.700012,321.429596 316.137177,318.775299 318.295288,317.105896   C325.390808,311.617249 333.887451,311.069519 342.472565,310.939392   C345.187714,310.898254 347.892303,310.161072 350.354279,309.780670   C349.830841,312.580505 349.384003,314.970703 348.723633,317.668579  M320.838074,328.598724   C320.570129,328.264496 320.302185,327.930267 320.034241,327.596039   C320.079956,328.077271 320.125671,328.558533 320.838074,328.598724  z"
   id="path34" />
<path
   fill="#C3C3C3"
   opacity="1.000000"
   stroke="none"
   d=" M253.729828,323.299866   C249.150864,320.451904 244.899628,317.803589 240.592117,315.250214   C238.396912,313.949036 237.657349,313.129486 240.715698,311.838531   C241.673889,311.434082 242.579193,309.310364 242.416534,308.123260   C241.747971,303.243958 243.052048,300.450073 248.525162,300.960571   C248.979080,301.002899 249.515045,300.803955 249.926651,300.567139   C258.338409,295.728333 267.613037,295.927429 276.839539,296.024872   C283.866150,296.099030 290.890350,296.401886 297.889709,296.602264   C298.057892,300.847351 296.664276,302.236298 293.223572,302.072571   C290.157135,301.926697 286.585724,300.834991 284.596527,304.680939   C284.456085,304.952454 283.503815,305.149170 283.230530,304.955414   C278.716827,301.755280 275.018616,305.702576 272.152863,307.414642   C269.053375,309.266357 265.737915,310.475098 262.648865,312.200897   C259.969940,313.697449 260.944244,316.677521 260.606476,318.984619   C260.310120,321.009125 260.947632,323.170349 261.328522,326.726227   C258.300232,325.402924 256.167236,324.470856 253.729828,323.299866  z"
   id="path35" />
<path
   fill="#C3C3C3"
   opacity="1.000000"
   stroke="none"
   d=" M293.249084,327.251556   C286.184784,334.202789 278.686249,339.989838 270.961426,345.476593   C270.456451,344.995026 269.951447,344.513458 269.446472,344.031860   C270.985809,341.848053 272.293365,339.445831 274.107147,337.520538   C280.020630,331.243530 286.991974,325.759827 291.920105,318.810516   C297.778778,310.549011 305.180817,304.187103 312.759552,297.906250   C316.405182,294.884979 320.863525,292.844452 324.953827,290.359772   C325.357697,290.735962 325.761566,291.112122 326.165466,291.488312   C325.529724,292.738831 325.099945,294.161102 324.224182,295.211578   C319.200592,301.237274 314.070007,307.173798 308.979736,313.143951   C308.557861,313.638794 308.262115,314.453064 307.745026,314.622650   C301.244843,316.754913 298.171509,322.792694 293.249084,327.251556  z"
   id="path36" />
<path
   fill="#C3C3C3"
   opacity="1.000000"
   stroke="none"
   d=" M382.817108,186.491425   C382.270111,185.645599 381.886414,185.150757 381.597809,184.778534   C380.984161,186.232849 380.330872,187.781067 379.677612,189.329300   C378.773987,189.035736 377.870361,188.742188 376.966736,188.448639   C378.612061,181.109467 380.122498,173.736450 381.953552,166.443924   C383.043579,162.102722 384.832428,157.938934 385.963165,153.605637   C388.110046,145.378220 394.945160,140.990967 401.392273,144.095383   C401.965271,144.371262 402.433258,146.299164 402.056580,146.893738   C397.854431,153.526367 393.051819,159.815582 389.299469,166.682800   C386.921753,171.034256 386.768677,176.161560 389.402130,180.922729   C389.924469,181.867035 389.931000,183.096603 389.992706,183.373871   C388.315247,184.963837 387.246246,186.307587 385.868317,187.139816   C385.206818,187.539307 383.961395,186.971909 382.817108,186.491425  z"
   id="path37" />
<path
   fill="#C3C3C3"
   opacity="1.000000"
   stroke="none"
   d=" M153.290390,308.333527   C152.136536,310.112854 151.211700,311.539215 150.286835,312.965546   C149.191696,311.441162 147.331512,310.001434 147.151611,308.375793   C146.697739,304.273987 146.579773,300.033447 147.113678,295.951355   C147.693222,291.520203 145.622757,288.267395 143.450974,285.030701   C140.117035,280.062042 136.222595,275.455627 133.092972,270.371124   C131.973450,268.552307 132.383972,265.791718 131.861328,261.559662   C135.136795,263.916718 137.710083,265.168213 139.459671,267.147736   C143.582794,271.812592 147.509506,276.683838 151.136215,281.743561   C153.725906,285.356506 155.887009,288.973541 154.264954,294.229218   C152.951706,298.484375 153.690689,303.372955 153.290390,308.333527  z"
   id="path38" />
<path
   fill="#C3C3C3"
   opacity="1.000000"
   stroke="none"
   d=" M415.719330,184.636154   C415.326904,186.125778 415.439941,187.402725 414.932190,188.345276   C413.872345,190.312790 412.484680,192.103729 411.231689,193.967194   C409.821259,191.901550 407.397217,189.910751 407.237885,187.752716   C406.998779,184.514145 408.455200,181.175797 408.999054,177.848587   C410.069031,171.302917 410.971130,164.729889 412.028015,158.181961   C412.263214,156.724655 412.597443,155.164474 413.361542,153.951050   C413.918335,153.066818 415.256470,152.674576 416.246307,152.063019   C416.830170,153.136139 417.791718,154.160141 417.938660,155.290085   C419.210693,165.071289 417.787720,174.690964 415.719330,184.636154  z"
   id="path39" />




<path
   fill="#000000"
   opacity="1.000000"
   stroke="none"
   d=" M320.504761,328.819244   C320.125671,328.558533 320.079956,328.077271 320.034241,327.596039   C320.302185,327.930267 320.570129,328.264496 320.504761,328.819244  z"
   id="path44" />
</svg>
