<svg viewBox="0 0 477 703" xmlns="http://www.w3.org/2000/svg"><path fill="#C3C3C3" d="M209.468 704c-1.083-.665-1.6-1.767-2.327-1.929-6.701-1.492-10.308-5.712-11.259-11.633-4.059-.645-8.281-.51-11.717-2.088-3.389-1.557-5.982-4.847-8.996-7.438-4.758 3.78-10.608 2.55-15.873.594-5.231-1.943-4.213-7.43-4.336-11.845-7.071-2.097-11.868-2.684-12.127-22.78-2.53-1.032-5.922-1.38-7.204-3.208-1.502-2.143-1.369-5.559-1.576-8.45-.232-3.247-.053-6.525-.053-9.462-1.292-1.2-3.198-2.203-3.896-3.75-3.534-7.845-6.443-15.793-3.898-24.74.76-2.669-.07-5.754.135-8.627.176-2.486 1.284-4.98 1.097-7.401-.35-4.513-1.807-8.961-1.964-13.465-.311-8.93-5.898-13.14-13.212-16.075-7.734-3.103-12.71-8.939-16.118-16.266-3.8-8.17-7.52-16.378-11.125-24.634-.954-2.184-1.898-4.6-1.928-6.922-.19-14.821-1.546-30.004 3.216-44.155 3.55-10.55-.675-17.75-6.436-24.787-7.09-8.66-10.798-18.763-11.54-29.344-.82-11.674-2.028-23.703 2.636-35.176 4.372-10.754 8.695-21.544 12.502-32.506 2.642-7.607 4.575-15.485 6.381-23.344.51-2.22-.356-4.842-.91-7.205-1.067-4.55-2.454-9.025-3.496-13.58-.255-1.115.596-2.455.438-3.624-.28-2.076-.942-4.101-1.744-6.177-.373-2.127-.809-4.245-1.091-6.384-.152-1.147-.526-2.702.035-3.434 3.431-4.481-.721-6.985-2.496-9.969-6.45-10.84-13.17-21.521-19.568-32.392-3.924-6.664-9.043-13.197-10.714-20.458-1.766-7.67-1.905-16.757.583-24.093 2.904-8.56 1.376-14.926-2.916-21.806-5.73-9.187-9.219-19.17-9.967-30.033-.293-4.245.59-9.02-1.08-12.615-2.47-5.312-6.247-10.261-10.343-14.524C17.108 98.416 11.93 86.35 9.348 73.473c-1.409-7.028.268-14.757 1.03-22.12 1.227-11.85 1.376-23.54-3.271-34.785a104.748 104.748 0 00-5.82-11.9C1 4.556 1 4.11 1.333 3.673 2.111 2.786 2.556 1.893 3 1h6.563c.449.484.312 1.325.493 1.4C20.748 6.843 25.47 16.516 29.797 26.04c3.546 7.806 8.129 14.53 14.16 20.497 4.222 4.177 7.748 9.11 12.211 12.982 11.24 9.752 22.916 18.996 34.231 28.663 3.225 2.755 6.03 6.087 8.648 9.451 9.215 11.846 14.41 25.428 16.976 40.132 1.867 10.703 4.125 21.342 5.816 32.072.842 5.344.543 10.86 1.213 16.241 1.546 12.427 2.266 25.107 5.403 37.142 2.877 11.035 9.705 20.31 19.891 26.686 4.943 3.093 9.197 7.267 13.882 10.793 6.88 5.177 14.633 9.456 20.595 15.514 6.241 6.341 12.547 4.394 19.358 3.193 1.614-.285 3.279-.386 4.92-.39 15.499-.027 31.049-.802 46.477.232 12.402.831 24.65 3.897 36.977 5.908 6.253 1.02 12.518 1.983 18.798 2.817 4.61.611 6.314-2.724 7.608-6.22 4.173-11.273 6.793-22.796 8.448-34.814 1.376-9.997 5.897-19.675 9.886-29.13 1.224-2.901 5.216-4.704 8.075-6.828 3.386-2.516 6.871-4.906 10.395-7.226 7.055-4.643 5.114-12.287 6.123-18.807 1.148-7.411.901-15.06 2.323-22.4.754-3.89 3.69-7.386 5.772-10.984 1.942-3.355 4.494-6.432 5.935-9.974.864-2.125.038-4.908.103-7.392.295-11.259.586-22.518.98-33.773.237-6.758.667-13.509.996-20.263.197-4.035 1.579-7.32 4.537-10.358 7.363-7.562 14.157-15.676 21.524-23.232 4.047-4.15 8.36-7.944 14.78-8.902 2.384-.355 4.407-4.025 6.333-6.395 9.389-11.553 9.274-11.263 23.663-7.44 9.15 2.432 16.338 7.744 23.076 13.784 3.06 2.744 5.075 6.656 7.827 9.71C478 57.02 478 67.042 478 77.53c-1.652 1.115-3.293 1.79-4.959 2.4-4.148 1.52-8.27-.407-11.066-5.141-3.181-5.387-6.54-6.065-11.918-2.837-8.126 4.878-12.097 12.144-15.417 20.986-5.321 14.169-5.413 28.708-6.79 43.3-1.128 11.964-.742 24.043-4.495 35.887-2.37 7.476-1.54 15.938-2.391 23.932-.948 8.911-2.586 17.767-3.166 26.696-.63 9.715-6.662 16.58-11.284 24.275-6.416 10.68-12.595 21.542-14.423 34.112-1.694 11.657 1.585 22.132 7.578 32.247 5.604 9.46 10.026 19.608 10.332 30.977.33 12.253 1.323 24.536.782 36.75-.4 9.02-2.358 18.054-4.412 26.898-2.766 11.91-6.432 23.607-9.445 35.463-2.37 9.323-.805 18.54 2.12 27.453 5.922 18.054 5.79 35.443-5.301 51.603-5.608 8.17-11.934 15.845-17.634 23.956-5.354 7.618-9.952 15.785-15.536 23.221-7.076 9.426-5.33 19.544-3.833 29.9.519 3.59 1.68 8.502-.082 10.704-3.43 4.284-2.878 9.267-4.8 13.604-.874 1.972-3.41 3.207-5.542 5.085 1.417 4.555.92 9.403-1.87 14.26-2.12 3.687-5.082 5.548-8.792 4.519-2.117-.588-4.313-3.074-5.262-5.237-1.998-4.555-3.199-9.459-4.727-14.22-10.276 2.924-12.57 14.22-6.438 21.46 1.667 1.969 2.694 4.543 4.548 6.265 1.247 1.16 3.683 2.124 5.121 1.677 1.352-.42 2.094-2.806 3.102-4.328.59-.89 1.176-1.783 2.344-3.557 1.574 11.055-1.244 13.073-13.001 9.953-3.59-5.327-6.648-10.13-10.51-16.2l-9.112.484c4.241 10.641 3.844 21.686 13.446 30.265 1.132-4.308 2.492-7.517 2.676-10.792.154-2.75.991-3.804 3.521-3.884-.455 4.037-.619 8.138-1.494 12.082-.408 1.84-1.976 3.598-3.413 4.983-1.472 1.421-3.736 2.055-5.111 3.537-3.492 3.762-7.053 7.016-12.619 5.575-2.855 8.54-16.154 14.344-22.22 12.963-3.018-.688-4.708-.288-6.792 1.755-1.394 1.366-3.558 1.946-5.046 3.158-7.357.28-15.044.28-22.872.015a66.283 66.283 0 00-4.957-3.389c-2.48-1.537-7.349.492-8.84 3.654h-18.532M91.266 299.845l-1.02-.471c.224.567.449 1.134.746 2.482l10.175 19.309c-2.104 6.147-4.66 13.672-7.255 21.184-1.947 5.637-3.947 11.256-5.914 16.887-3.393 9.718-5.784 19.956-10.484 28.993-3.71 7.136-3.673 13.08-.512 19.751.626 1.322 1.768 2.592 1.844 3.933.106 1.845-.576 3.735-.92 5.606l-3.54-1.258c2.555 6.185 5.688 11.833 9.488 16.99 4.903 6.656 9.326 13.586 6.84 22.053-4.126 14.06-4.985 28.371-4.597 42.813.123 4.57 1.633 9.101 2.386 13.018 1.969-.426 3.832-1.067 3.956-.822 2.411 4.734 7.5 4.99 11.371 7.296 4.444 2.647 8.396 6.286 12.102 9.958 3.641 3.607 8.26.41 12.077 2.445 1.444.77 3.49.32 5.183.744 1.314.33 2.448 1.41 3.763 1.697 2.033.442 4.152.49 6.64.748.719-3.136 2.677-3.3 5.475-.718 1.025.945 2.342 1.914 3.654 2.148 4.68.833 9.415 1.356 14.778 2.084l2.732-3.35c1.079 6.273-.772 8.259-5.797 7.432-3.953-.65-7.95-1.034-11.932-1.488-.123-.014-.314.515-.462.796-2.022 3.827-4.846 3.045-7.942 1.51-1.41-.698-3.92-1.867-4.38-1.374-3.747 4.02-6.217.317-9.137-1.073-.998-.475-2.233-.598-3.365-.623-3.737-.082-9.185 1.514-10.888-.352-4.723-5.176-8.804-.312-13.181-.762 3.476 2.882 6.916 5.775 10.875 7.414 7.386 3.058 15.011 5.594 22.671 7.904 2.6.784 5.605.245 8.425.28 2.663.034 5.568-.666 7.95.158 10.914 3.778 21.68 7.983 32.505 12.017.794.296 1.717.782 2.45.615 5.28-1.2 10.516-2.581 15.79-3.805.713-.165 1.556.23 2.34.364-.303.855-.38 1.922-.95 2.525-1.787 1.893-4.384 3.294-5.498 5.48-1.314 2.58-1.406 5.781-2.042 8.783-2.248-.878-3.86-1.666-5.56-2.142-5.172-1.448-10.533-2.363-15.536-4.245-8.324-3.131-16.44-6.824-24.615-10.344-2.322-1-11.612 1.502-11.804 3.66-.696 7.787-4.226 15.888 1.875 23.155 2.696 3.211 4.767 7.33 8.112 9.532 6.038 3.977 12.813 6.838 19.298 10.132 1.712.869 4.003 1.168 5.146 2.492 5.67 6.568 14.193 7.662 21.256 11.512 1.688.92 3.726 1.207 5.392 2.154 5.592 3.18 13.154 2.497 18.094-1.905 2.59-2.307 4.811-5.113 7.642-7.044 6.272-4.281 9.6-10.033 11.224-17.403.797-3.615 1.58-8.126 5.548-9.82 2.043 3.263 3.458 6.255 5.539 8.675 3.085 3.587 6.788 6.637 9.957 10.16 3.339 3.709 5.776 8.47 9.64 11.418 8.455 6.452 18.796 4.845 28.017 3.05 10.001-1.946 18.424-7.795 25.04-16.34 5.895-7.613 12.85-14.517 20.002-21 3.957-3.588 3.948-7.467 4.157-11.956.215-4.635-2.603-7.013-6.118-7.685-4.209-.804-8.731-.55-13.044-.079-5.449.596-10.937 1.467-16.203 2.95-8.591 2.419-17.009 5.453-25.523 8.155-.943.3-2.689.537-2.954.111-2.148-3.442-3.316-7.557-1-10.937 1.307-1.908 4.721-2.582 7.325-3.331 2.453-.706 5.093-.75 7.641-1.144 1.58-.245 3.137-.818 4.716-.869 5.488-.175 11.18.711 16.431-.447 11.212-2.472 22.233-5.286 33.832-2.73 1.368.302 3.319-.318 4.495-1.191 3.848-2.855 7.382-6.13 11.196-9.036 2.85-2.173 5.947-4.025 8.933-6.019l-.89-1.541-14.844 8.148c0-2.227 0-3.709.553-5.402l.315-1.552-.952-.75c-.209.569-.417 1.137-1.179 2.195-2.127.991-5.334 3.393-6.197 2.733-3.931-3.008-7.232 1.979-10.747.207-3.243 5.194-8.892.89-12.91 3.186-.217.125-1.134-.977-.686-.574-3.68 2.126-6.738 3.935-9.906 5.522-.1.05-1.347-2.196-2.22-3.637l-1.85 3.767-.888-1.15c-2.473 1.72-4.922 3.474-7.434 5.133-.702.464-1.829 1.134-2.347.876-2.274-1.13-4.397-2.566-7.884-4.688l14.143-12.376c3.465 3.899 5.825 1.792 9.12-.857 2.451-1.97 5.404-5.833 9.881-3.028.518.324 1.8-.423 2.66-.821 3.145-1.46 6.166-3.255 9.419-4.395 2.664-.934 5.575-1.253 8.406-1.597 4.54-.553 9.103.403 13.744-1.577 1.364-.582 2.7-1.396 4.106-2.05 1.242-.577 2.908-.24 5.279-.346l3.08-5.205 3.911 1.774 9.387-5.723c1.17.33 3.93 1.046 5.791-3.183 5.125-11.641 6.444-23.788 2.589-35.848-4.078-12.755-5.754-25.52-3.159-38.62.957-4.828 3.636-9.297 4.798-14.107 2.013-8.335 2.912-16.962 5.26-25.186 4.003-14.014 4.018-28.259 3.758-42.57-.026-1.411-1.111-2.802-1.704-4.202l-1.076.404-.372 6.422c-2.551-1.012-4.79-1.822-6.944-2.819-.437-.203-.598-1.09-.807-1.689-2.502-7.147-5.166-14.245-7.42-21.47-1.62-5.193-3.227-10.238-1.872-16.132 1.38-6.008 1.215-12.436 1.223-18.68.017-14.107-.954-28.322 6.988-41.076.621-.998.78-2.283 1.153-3.435l-1.2-.842c-5.956 6.649-12.229 13.05-17.72 20.063-2.358 3.011-4.68 7.541-4.149 10.931.61 3.893-.399 7.005-.953 10.465-.276 1.725-.048 3.53-.048 5.113l3.61-.351c.465 8.51.812 16.76 1.399 24.994.5 7.021 1.323 14.02 1.887 21.038.099 1.23-.18 3.518-.617 3.603-4.311.837-1.624 3.885-2.057 5.893-.33 1.533-.22 3.408-1.085 4.528-1.852 2.394-4.577 4.143-6.284 6.613-3.76 5.438-3.607.866-4.164-1.132l-3.811.275c-.959-2.704-2.25-4.904-2.398-7.178-.138-2.144.93-4.366 1.446-6.472-6.351-1.57-5.005-9.004-5.29-12.669-.518-6.638 7.04-9.234 11.592-12.06-.436-5.678-.812-11.03-1.28-16.375-.12-1.38-.322-3.83-.833-3.925-3.487-.648-1.948-2.618-1.569-4.446.174-.841-.104-1.776-.182-2.668-.189-2.136-1.242-4.75-.38-6.3 1.51-2.714.609-3.661-1.531-4.864-2.472-1.388-3.445-3.135-1.24-5.76 6.307-7.509 12.494-15.118 18.737-22.681 4.22-5.113 8.453-10.214 12.68-15.32l-2.114-.863c.25-1.477-.014-3.46.847-4.338 2.863-2.921 5.927-5.743 9.295-8.047 4.313-2.95 8.995-5.362 15.4-9.107.86-9.758 1.859-21.44 2.931-33.115.645-7.014.235-14.393 2.344-20.95 5.181-16.116 3.538-32.816 5.34-49.183.97-8.814 1.532-17.506 4.927-25.748 2.448-5.946 4.26-12.412 7.903-17.548 5.464-7.705 13.49-11.366 23.492-9.376-2.224-.781-5.215-.113-6.398-1.28-4.458-4.392-9.67-2.479-14.64-2.64-5.906-.192-11.433 2-14.585 6.515-4.615 6.612-9.011 13.506-10.805 21.854-.48 2.232.737 9.554-6.852 7.053l-1.142 11.871-4.9-1.498v11.24c-2.678-2.065-5.531-3.177-6.511-5.197-5.73-11.812-5.916-24.065 1.015-35.197 5.033-8.085 11.96-14.99 18.045-22.42 7.607-9.289 17.468-14.484 29.297-16.045 4.111-.542 14.434 5.622 16.52 9.47 1.177 2.171 2.63 4.3 4.368 6.04 3.836 3.84 3.45 10.498-3.388 16.303l8.253 5.945c1.942-5.808 3.978-9.657 4.408-13.677.758-7.108.829-14.014-4.103-20.535-5.56-7.353-12.867-12.079-20.61-16.043-11.906-6.097-14.798-5.276-22.533 3.364-.636.71-.978 1.681-1.592 2.417-2.893 3.46-5.228 8.124-10.258 8.362-5.517.26-8.737 3.468-11.998 7.054-6.656 7.32-13.419 14.545-19.898 22.017-1.928 2.223-3.668 4.977-4.404 7.774-.99 3.756-1.075 7.782-1.265 11.705-.201 4.157.013 8.333-.101 12.496-.255 9.26-1.973 18.737-.54 27.718 1.546 9.694-1.172 16.731-7.08 23.721-4.692 5.549-7.333 12.087-7.384 19.625-.053 7.925-.476 15.856-1.037 23.763-.127 1.782-1.045 4.03-2.374 5.11-4.655 3.784-9.72 7.059-14.486 10.713-2.495 1.913-5.782 3.782-6.827 6.417-3.831 9.665-8.32 19.427-9.838 29.56-1.814 12.123-4.59 23.793-8.751 35.204-1.223 3.354-3.503 5.739-7.815 5.341-10.363-.955-20.57-2.084-30.78-4.761-15.939-4.18-32.438-5.115-48.957-4.22-.358.018-.693.47-1.038.72l.16 1.537 13.347-.598c1.856 6.784 6.341-1.217 9.388.675-3.635 6.406-13.348 8.987-21.182 7.876-8.854-1.256-18.08-1.135-25.413 5.816-.884.838-2.314 1.952-3.242 1.756-5.78-1.22-10.34 2.495-13.997 5.149-5.377 3.9-11.155 3.194-17.094 4.592.66-2.28 1.984-3.868 3.046-5.615 1.858-3.057 6.928-4.802 5.024-9.363-1.774-4.253-4.527-8.118-7.03-12.039-1.698-2.66-3.709-5.12-5.58-7.67l1.16-.936 4.287 1.782c-.056-.737.045-1.21-.12-1.338-8.346-6.505-16.406-13.435-25.156-19.342-11.066-7.47-20.132-16.484-23.235-29.638-2.382-10.097-3.05-20.602-4.408-30.935-1.7-12.938-3.004-25.938-5.069-38.817-2.557-15.948-4.869-32.148-13.894-46.067-4.415-6.808-9.104-13.999-15.304-18.979-16.529-13.274-33.02-26.509-46.98-42.536-4.39-5.039-8.887-10.425-11.508-16.447-3.085-7.085-6.548-13.715-11.652-19.404-2.466-2.75-4.651-6.48-9.308-6.089L14.9 28.9l2.318-4.796c1.186 2.295 1.897 3.862 2.774 5.328 2.068 3.46 4.162 6.908 6.355 10.29.982 1.513 2.18 2.896 3.367 4.263 1.03 1.187 2.73 2.083 3.19 3.429 2.534 7.44 6.374 13.567 13.06 18.281 8.786 6.196 16.561 13.84 25.424 19.909 6.297 4.312 12.069 8.856 16.676 14.914.536.705 1.651.942 2.43 1.491 3.09 2.177 5.76 4.605 5.504 8.897-.09 1.507-.251 3.138.195 4.527 2.965 9.238 6.085 18.425 9.063 27.351l1.078-.65c.22.726.698 1.485.609 2.17-.19 1.449-1.018 2.868-.983 4.284.264 10.59.64 21.178 1.079 31.762.065 1.58.1 3.829 1.07 4.584 3.33 2.593 2.109 5.367 1.21 8.4-1.768 5.973-2.388 11.84 1.051 17.638 1.364 2.3 2.243 5.109 2.548 7.777 1.629 14.274 7.362 27.05 13.863 39.598.822 1.585 1.044 3.482 1.543 5.235l-1.18.977c-2.296-1.27-4.562-2.593-6.891-3.797-5.698-2.946-11.956-5.134-16.998-8.939-5.478-4.134-12.886-5.116-17.112-11.123-3.088-4.389-6.776-8.372-9.67-12.874-2.241-3.49-3.684-7.496-5.449-11.288-.731-1.572-1.375-3.185-2.059-4.779-.366-2.307.296-4.898.46-7.52.113-1.782-.469-3.609-.75-5.414-.287-1.847-.011-4.087-.967-5.478-10.264-14.935-12.842-32.322-15.517-49.53-1.2-7.717-3.327-14.802-7.292-21.37-5.522-9.146-11.474-18.038-16.806-27.29-5.216-9.05-9.884-18.415-15.149-28.311 0 2.412-.277 4.25.044 5.975 2.612 14.02 9.384 26.032 19.436 35.82 6.447 6.278 9.169 13.036 8.669 21.85-.679 11.954 3.684 22.988 9.933 32.556 5.92 9.063 6.017 17.431 2.581 26.798-2.826 7.707-3.048 15.685.843 22.834 6.863 12.609 14.498 24.799 21.886 37.118 1.411 2.353 2.789 5.924 4.844 6.478 7.702 2.078 12.441 7.646 17.55 12.93.893.924 1.695 1.938 2.452 2.81-4.16 3.074-9.56-2.928-11.679 2.381-1.425 3.57-.271 8.17-.271 12.3 2.797 1.39 5.499 3.759 8.297 3.88 4.138.179 6.209 2.63 8.584 5.06 2.92 2.988 6.934 5.334 6.08 10.612-.144.886.938 2.012 1.543 2.97 5.54 8.775 6.916 18.392 5.88 29.863-1.328-1.508-2.202-2.136-2.56-2.982-.748-1.765-1.042-3.729-1.847-5.46-2.107-4.54-4.696-8.878-6.533-13.518-3.242-8.19-10.287-12.303-17.41-17.275m116.849 398.777c5.28 1.515 10.357 3.187 16.149 1.496 8.432-2.463 10.486-4.898 10.815-13.677.27-7.185 1.253-14.342 1.861-21.517.097-1.14.33-2.653-.256-3.398-2.615-3.322-5.158-6.839-8.359-9.534-9.189-7.738-18.913-5.002-22.311 6.512-2.552 8.643-4.43 17.535-5.904 26.433-1.341 8.093.019 9.81 8.005 13.685m30.67-3.347c1.354 1.249 2.515 2.874 4.095 3.68 6.53 3.332 13.19 2.277 19.82.11 7.787-2.544 7.978-2.951 6.343-10.56-.85-3.95-1.612-7.945-2.004-11.96-.671-6.886-2.077-13.243-8.434-17.375-1.721-1.119-3.197-2.684-4.595-4.218-2.401-2.637-5.588-4.017-8.635-2.71-1.93.828-3.98 3.671-4.204 5.798-1.288 12.177-2.045 24.41-2.386 37.235m32.22-13.022c.999 3.058 1.611 6.33 3.138 9.095.95 1.722 3.695 4.085 4.922 3.726 4.082-1.195 7.937-3.322 11.689-5.43 2.086-1.172 3.795-3.014 5.432-4.355-7.005-8.918-10.38-19.14-10.314-30.468-1.497-.98-3.559-1.596-4.23-2.918-1.523-2.994-3.49-3.916-6.533-2.874-3.524 1.207-6.236 3.428-6.034 7.365.428 8.343 1.26 16.665 1.93 25.86m-92.974-6.243c3.567 3.42 6.818 7.287 10.806 10.115 3.057 2.168 7.559-.506 8.176-3.964 1.278-7.16 2.2-14.428 4.138-21.41 1.514-5.454-.913-7.826-5.142-9.77-4.435-2.038-12.24-1.492-13.75 1.498-3.586 7.102-6.126 14.535-4.228 23.531m-19.102-16.675c-.249 4.734-1.033 9.521-.58 14.188.377 3.883 5.97 7.324 9.489 6.376 3.968-1.07 6.226-3.089 6.427-8.153.264-6.662 2.26-13.285 3.813-19.854.9-3.807 1.172-6.849-3.074-8.96-5.15-2.56-9.521-2.705-11.256 1.031-2.124 4.575-3.217 9.629-4.819 15.372m150.455 15.595c-7.075-8.323-6.641-19.547-10.918-28.863-6.584.057-11.078 7.352-9.104 14.65 1.043 3.856 1.96 7.849 3.735 11.377 1.947 3.87 4.097 9.091 7.466 10.425 4.127 1.634 6.769-3.74 8.821-7.589M342.501 631l-9.617-21.08c-3.356 1.012-5.639 3.653-4.85 8.024 1.029 5.713 1.996 11.468 3.565 17.043 1.022 3.635 3.065 6.984 5.023 11.279 4.121-5.144 8.33-8.577 5.88-15.266m-194.032 9.025c-.654 4.67-1.89 9.35-1.81 14.006.093 5.303 2.017 10.104 6.971 11.241 2.162-7.934 4.127-15.748 6.466-23.448 1.022-3.364-.76-7.196-4.18-6.616-2.491.422-4.66 2.74-7.447 4.817m-10.47-2.82c-.892 4.555 2.934 4.495 5.14 5.693 1.23-2.809 1.769-6.04 3.658-7.902 3.035-2.99 3.577-6.384 3.074-9.994-.311-2.24-1.868-4.308-2.867-6.452-2.199 1.51-5.54 2.568-6.356 4.626-1.619 4.084-1.846 8.72-2.649 14.029m204.535-33.192l-3.042-4.368c-4.506 10.117-.306 17.75 4.734 25.294 6.655-3.653 7.59-8.494 3.066-14.279-1.524-1.949-2.84-4.06-4.758-6.647m-203.159 2.901c-2.122-.32-4.653-1.52-6.277-.766-2.83 1.313-2.67 4.276-1.478 7.021 1.135 2.615 2.195 5.262 3.606 8.66 2.936-6.178 7.901-6.9 11.474-7.031a572.343 572.343 0 00-7.325-7.884m214.181-4.864l-3.497-11.71c-1.666.514-4.515.535-5.436 1.877-1.423 2.075-1.472 4.604.982 7.174 3.02 3.162 4.966 7.35 8.341 12.594 0-3.895 0-6.526-.39-9.935M216.438 282l-25.184 1.82c1.395 4.646 4.679 3.9 6.805 2.354 3.279-2.385 6-2.738 9.325-.49.889.6 2.351.798 3.434.585 3-.589 5.927-1.546 8.909-2.25 1.892-.446 3.83-.699 5.748-1.039l-.142-.98h-8.895m194.183-54.084l-4.213 3.749 1.086.435-2.884 8.384 1.483.576c2.167-4.063 4.36-8.112 6.426-12.225.101-.202-.907-.962-1.898-.919m-223.156 60.112l1.19-2.363-8.044-5.631 5.193 11.14c.286-.583.765-1.56 1.66-3.146m211.593-40.275l-1.575 6.22.696.213 3.934-8.362-.737-.384c-.626.529-1.252 1.057-2.318 2.313m-219.459 30.409l-1.002.804c.481-.046.962-.092 1.002-.804M403.905 243.8l-1.27.463c.405.107.81.214 1.27-.463z"/><path d="M2.5 1c.056.893-.389 1.786-1.167 2.34 0-1.007.334-1.673 1.167-2.34zm88.606 299.88c-.411-.372-.636-.94-.86-1.506.34.157.68.314 1.213.692.073.354-.047.487-.353.814zm88.713-22.385c-.26.38-.742.425-1.223.47.334-.267.668-.535 1.223-.47z"/><path fill="#C2C2C2" d="M196.838 517.984c-15.409-.579-30.434-.674-45.369-1.889-8.824-.717-17.528-2.497-25.861-6.542-5.752-2.793-10.658-6.333-13.257-11.494-3.93-7.805-6.74-16.284-9.115-24.732-2.558-9.098-2.948-18.321.213-27.702.854-2.536-1.919-6.332-3.143-9.505-.331-.86-1.085-1.558-2.079-2.927 3.068 0 5.197.039 7.323-.015 1.309-.033 3.02.29 3.857-.395 7.494-6.129 16.59-5.335 24.913-4.495 10.73 1.084 21.283 4.188 31.82 6.794 4.828 1.194 9.437 3.274 14.123 4.945l4.14-6.272c-2.668-.92-5.302-1.895-7.979-2.736-3.347-1.052-7.245.145-10.04-3.54-1.021-1.348-4.717-.332-6.719-1.338-5.531-2.78-10.739-6.2-16.236-9.057-1.758-.913-4.018-1.165-6.054-1.184-8.68-.084-17.678 1.439-25.938-.408-5.68-1.27-10.85.045-16.11-.723-4.49-.656-8.783-2.678-12.67-3.935l1.199-8.641c4.38 1.286 9.048 2.742 13.765 4.016 3.862 1.042 7.745 2.115 11.687 2.733 6.708 1.05 13.47 1.754 20.757 2.673.115-10.81-7.8-18.988-10.347-28.89l.986-1.305c3.927 2.191 8.427 3.752 11.666 6.698 8.036 7.308 15.59 15.16 23.113 23.01 1.573 1.642 5.294 2.852 2.944 6.493-.048.073.084.36.202.428 3.045 1.766 6.104 3.507 9.151 5.27 3.334 1.929 5.75 2.522 9.259-1 3.697-3.709 9.112-7.59 13.96-7.842 7.859-.407 15.94-1.39 23.388 5.722 8.218 7.847 11.714 16.254 11.44 26.888-.048 1.915-1.541 3.793-2.897 6.903 1.342 1.482 4.01 4.145 6.304 7.099.971 1.25 1.796 3.215 1.562 4.675-.486 3.022-1.94 5.879-2.561 8.893-.301 1.462.501 3.119.592 4.7.426 7.445.86 14.894 1.035 22.347.017.746-1.644 2.11-2.614 2.195-3.179.282-5.366 1.605-6.365 4.649-1.84 5.609-7.288 5.612-11.54 7.104-3.83 1.344-8.041 1.605-12.505 2.332m-12.46-68.007c-3.165-.87-6.34-1.702-9.491-2.62-4.768-1.39-9.52-2.835-14.277-4.267-5.63-1.694-11.192-3.683-16.906-5.013-4.74-1.102-9.654-1.476-14.5-2.097-9.12-1.17-13.914 2.304-16.27 11.505-.672 2.628-1.97 5.103-2.566 7.741-.471 2.082-.859 4.458-.322 6.443 1.732 6.405 3.768 12.739 5.972 19 1.119 3.179 2.527 6.354 4.364 9.164 4.92 7.522 11.66 12.332 20.657 14.488 10.171 2.439 20.089 5.967 30.799 4.666 2.929-.356 5.97-1.3 8.778-.847 7.911 1.274 15.384.717 23.02-2.02 5.787-2.073 8.999-4.63 8.441-10.72-.514-5.61-1.112-11.537-3.327-16.602-5.108-11.68-12.973-21.468-24.372-28.82m33.674-5.361c-1.045-1.401-1.79-3.387-3.187-4.107-7.927-4.09-16.3-6.49-26.826-5.743 2.104 1.91 3.09 3.496 4.437 3.907 6.384 1.952 12.862 3.603 19.317 5.318 2.04.542 4.113.952 6.26.625zm142.938 60.372c-15.037 9.139-31.32 15.211-47.981 19.007-11.932 2.72-25.162 3.969-36.769-3.078-4.049-2.458-7.322-6.187-10.977-9.303-1.51-1.286-3.427-2.235-4.573-3.773-2.426-3.255-4.467-6.797-6.985-10.717-4.874-.805-5.253-2.508-4.809-11.528.396-8.03 1.46-15.524 6.743-21.99.712-.872.163-2.855.042-4.31-.214-2.581-1.137-5.25-.728-7.71 1.735-10.435 6.59-19.814 11.978-28.624 2.346-3.837 5.77-7.953 12.822-7.333 13.046 1.148 25.93 2.672 38.827 4.97 3.687.656 8.251-2.995 12.261-4.978 2.753-1.362 5.555-2.922 7.766-5 2.465-2.315 4.123-5.465 6.424-7.985 3.421-3.75 6.934-7.456 10.778-10.75 1.007-.862 3.38-.13 5.126-.13l.895 1.631c-2.04 2.47-4.203 4.853-6.066 7.45-.885 1.234-1.549 2.865-1.597 4.34-.02.575 1.994 1.125 2.968 1.841 2.955 2.174 5.843 3.02 8.839.058.228-.225 1.004-.09 1.423.102 4.006 1.826 7.99 3.7 11.565 5.368-4.841 4.329-4.841 4.329-6.243.863-4.923 4.72-11.365 5.145-17.6 6.259-3.201.571-6.461 1.21-9.465 2.4-5.361 2.122-10.548 4.684-15.807 7.062l.58 1.865c5.917 0 11.834.044 17.75-.01 9.1-.082 18.555 2.186 26.61-5.002l1.608.818c.862 5.756 2.389 11.507 2.442 17.27.104 11.135.381 22.441-1.39 33.355-1.037 6.397-2.866 13.566-8.657 18.457-2.94 2.484-5.186 5.791-7.8 9.105m7.99-60.374c-.626-1.196-1.104-3.31-1.903-3.44-5.855-.948-11.813-2.29-17.664-2.004-11.576.566-23.196 1.545-34.62 3.43-7.746 1.278-15.635 3.493-22.629 6.964-5.724 2.84-10.738 7.682-15.135 12.49-5.795 6.335-7.863 14.768-9.395 22.962-1.224 6.55-1.615 13.457 4.08 18.845 1.27 1.203 2.03 2.961 2.97 4.497 3.498 5.71 9.047 8.66 15.24 9.488 7.193.963 14.571 1.024 21.562-1.924 13.333-5.623 27.001-10.568 39.914-17.027 7.61-3.806 13.572-10.656 16.469-18.922 3.936-11.232 3.564-22.886 1.111-35.359m-71.476-7.695l15.05-2.94c-1.334-.864-2.73-.776-3.84-1.296-10.57-4.945-20.946-4.857-30.918 1.377-2.34 1.463-4.067 3.904-6.04 5.859l11.466 1.62-.144 1.485c4.53-2.01 9.06-4.02 14.426-6.105z"/><path fill="#C3C3C3" d="M191.374 380.979c3.201-.059 5.958-.493 7.408 3.06.368.903 2.7 1.288 4.168 1.397 2.862.212 5.751.062 9.058.062-.086.257.209-.615.978-2.887l6.966 11.458c2.319.717 4.08.887 5.333 1.775.898.636 1.87 2.862 1.51 3.294-1.795 2.149-4.02 3.939-6.092 5.855l-1.95-2.323c-1.284.188-2.76.835-3.956.495-2.856-.812-5.598-2.044-8.352-3.188-3.995-1.659-7.948-3.42-11.947-5.07-1.027-.423-2.15-.817-3.24-.845-4.496-.12-9 .007-13.493-.156-3.136-.114-6.26-.55-9.758-.878-2-1.027-4.833-1.991-7.068-3.727-5.764-4.475-11.19-9.384-16.907-13.924-2.193-1.742-4.674-3.283-7.26-4.33-4.338-1.76-6.204-5.105-7.033-8.95-.863.573-1.805 1.64-2.802 1.694-.597.032-1.75-1.47-1.848-2.372-.804-7.33-1.614-14.67-2.026-22.03-.318-5.67-.063-11.37-.063-17.852 11.129 1.997 21.472-.94 30.584 4.752 1.114.696 2.064 2.292 2.256 3.593.125.846-1.262 1.916-2.295 3.327 5.687 13.895 17.27 26.393 17.715 43.366 1.53-1.848 2.98-2.797 4.498 1.101.59 1.516 4.028 1.923 6.12 2.814.02-.113.196-1.18.507-3.065 3.074 1.269 5.822 2.403 8.989 3.554z"/><path fill="#C2C2C2" d="M224.813 529.627c13.256-6.31 25.728-3.1 37.762 2.406 8.9 4.073 16.038 18.08 14.335 27.012-.342 1.792-1.991 4.585-3.219 4.684-2.162.176-4.464-1.369-7.307-2.414-3.542 6.447-10.359 8.302-17.903 5.44-4.443-1.686-5.045-10.547-1.304-18.852 2.53-5.62 7.788-5.728 13.28-3.48-3.636-10.724-25.42-11.946-35.196-1.585 10.74-.57 17.94 2.688 17.788 14.343-.064 4.937-2.122 8.547-6.895 9.63-2.99.68-6.626.875-9.338-.246-2.663-1.102-4.525-4.142-6.93-6.522.197-.055-.296-.06-.389.13-1.288 2.633-2.459 6.275-6.092 4.522-1.528-.737-2.135-4.336-2.337-6.704-1.017-11.936 3.997-21.116 13.745-28.364z"/><path fill="#C3C3C3" d="M369.42 230.216c-10.004 9.33-15.203 21.374-21.42 32.768-.615 1.126-1.68 2.006-2.535 3l-1.852-2.584-2.95 4.582-2.233-2.083-3.758 6.635-2.24-.969c1.188-4.752 2.323-9.519 3.575-14.254 2.304-8.709 2.687-17.827 6.76-26.211 2.017-4.15 4.998-7.21 8.546-8.482 4.48-1.604 7.205-4.636 10.243-7.674 5.917-5.917 15.765-7.784 23.448-4.469.871.377 1.797.627 2.71.94l-2.01 14.882c-7.166-5.628-10.517 2.923-16.284 3.919zm-20.696 87.453c-5.718 4.976-10.873 10.157-16.805 14.199-9.997 6.812-13.896 18.625-22.665 26.306a82.217 82.217 0 01-10.142 7.606c-.812.513-3.182-.246-4-1.163-2.146-2.404-3.845-5.88-1.253-8.398 7.447-7.232 15.394-13.949 23.047-20.781l1.437-5.72-3.427.251.613-3.051c-1.234-1.601-2.543-2.851-2.36-3.132 1.531-2.356 2.968-5.01 5.126-6.68 7.096-5.489 15.592-6.036 24.178-6.167 2.715-.04 5.42-.778 7.881-1.158-.523 2.8-.97 5.19-1.63 7.888m-27.886 10.93l-.804-1.003c.046.481.092.963.804 1.003zM253.73 323.3c-4.58-2.848-8.83-5.496-13.138-8.05-2.195-1.301-2.935-2.12.124-3.411.958-.405 1.863-2.529 1.7-3.716-.668-4.879.636-7.673 6.11-7.162.453.042.989-.157 1.4-.394 8.412-4.839 17.687-4.64 26.914-4.542 7.026.074 14.05.377 21.05.577.168 4.245-1.226 5.634-4.666 5.47-3.067-.145-6.638-1.237-8.627 2.609-.14.271-1.093.468-1.366.274-4.514-3.2-8.212.748-11.078 2.46-3.1 1.851-6.415 3.06-9.504 4.786-2.68 1.496-1.705 4.477-2.043 6.784-.296 2.024.342 4.185.723 7.741-3.029-1.323-5.162-2.255-7.6-3.426zm39.52 3.952c-7.065 6.95-14.564 12.738-22.289 18.225l-1.515-1.445c1.54-2.184 2.847-4.586 4.661-6.511 5.914-6.277 12.885-11.761 17.813-18.71 5.859-8.262 13.26-14.624 20.84-20.905 3.645-3.021 8.104-5.062 12.194-7.546l1.211 1.128c-.635 1.25-1.065 2.673-1.94 3.724-5.024 6.025-10.155 11.962-15.245 17.932-.422.495-.718 1.31-1.235 1.479-6.5 2.132-9.573 8.17-14.496 12.629zm89.567-140.761c-.547-.845-.93-1.34-1.22-1.712l-1.92 4.55-2.71-.88c1.645-7.34 3.155-14.713 4.987-22.005 1.09-4.341 2.878-8.505 4.01-12.838 2.146-8.228 8.981-12.615 15.428-9.51.573.275 1.041 2.203.665 2.798-4.203 6.632-9.005 12.922-12.758 19.789-2.377 4.351-2.53 9.479.103 14.24.522.944.529 2.174.59 2.45-1.677 1.59-2.746 2.935-4.124 3.767-.661.4-1.907-.168-3.05-.649zM153.29 308.334l-3.003 4.632c-1.095-1.525-2.955-2.965-3.135-4.59-.454-4.102-.572-8.343-.038-12.425.58-4.43-1.491-7.684-3.663-10.92-3.334-4.969-7.228-9.575-10.358-14.66-1.12-1.819-.709-4.58-1.232-8.811 3.276 2.357 5.85 3.608 7.599 5.588 4.123 4.665 8.05 9.536 11.676 14.596 2.59 3.613 4.751 7.23 3.129 12.485-1.313 4.255-.574 9.144-.975 14.105zm262.43-123.698c-.393 1.49-.28 2.767-.788 3.71-1.06 1.967-2.447 3.758-3.7 5.621-1.41-2.065-3.835-4.056-3.994-6.214-.24-3.239 1.217-6.577 1.761-9.904 1.07-6.546 1.972-13.12 3.029-19.667.235-1.457.57-3.018 1.334-4.23.556-.885 1.894-1.277 2.884-1.889.584 1.073 1.546 2.097 1.693 3.227 1.272 9.781-.151 19.401-2.22 29.346z"/><path d="M320.505 328.82c-.38-.261-.425-.743-.47-1.224.267.334.535.668.47 1.223z"/></svg>